<svg id="Capa_1" data-name="Capa 1" xmlns="http://www.w3.org/2000/svg" viewBox="0 0 482.86 277.52"><defs><style>.cls-1{fill:#949397;}.cls-2{fill:#2c9545;}</style></defs><title>dominion</title><path class="cls-1" d="M291.14,133c0,0.82.2,1.69-.7,2.2-4.17,2.36-7.16,6.21-11.42,8.56a88.6,88.6,0,0,1-19.53,8.37,89.26,89.26,0,0,1-25.26,2.89c-8.28-.13-16.57,0-25,0V118h4.28c10.65,0,21.3-.12,32,0a33.77,33.77,0,0,0,18.25-5.35,34.17,34.17,0,0,0,13.82-15.56c3-6.73,4.64-13.75,3.45-21A43.21,43.21,0,0,0,273.14,58a1.7,1.7,0,0,0,.79-0.34c0.14-.6-0.31-0.7-0.79-0.66a1.7,1.7,0,0,0-.34-0.79c-0.6-.14-0.7.31-0.66,0.79A1.63,1.63,0,0,1,270.61,56c-2.94-4.32-8.12-5.59-11.85-8.81-3.44-.35-6.55-2.16-10.11-2.14-13,.07-26,0-39.32,0-0.4-6.06-.12-12.15-0.17-18.23s0-12.28,0-18.77h5c9.16,0,18.31.06,27.47,0,3.91,0,7.67,1,11.56,1.24,3.73,0.21,7.39,2.07,11,3.36,9.26,3.29,12.79,5,20.09,10.51,1.63,1.23,3.06,3,4.76,4.11,2,1.25,2.72,3.34,4.42,4.69s3.59,2.78,4.49,4.62,2.27,3.73,3.34,5.57c1.63,2.82,3.65,5.37,5,8.44a89.29,89.29,0,0,1,5,14.94c0.82,3.38,1.25,6.81,1.78,10.2a40.34,40.34,0,0,1,.05,10.46c-0.77,7-1.78,14-4.22,20.7-2.08,5.71-5.34,10.79-8.19,16.08a1.55,1.55,0,0,1-1.53,1.08,0.7,0.7,0,0,0-.59-0.89,0.45,0.45,0,0,0-.29.29,0.7,0.7,0,0,0,.89.59c-0.12.6,0.28,1.29-.31,1.81-2.62,2.34-4.69,5.26-7.69,7.19a0.7,0.7,0,0,0-.59-0.89,0.45,0.45,0,0,0-.29.29A0.7,0.7,0,0,0,291.14,133Zm1-99h1a0.7,0.7,0,0,0,.59.89,0.45,0.45,0,0,0,.29-0.29,0.7,0.7,0,0,0-.89-0.6,1.7,1.7,0,0,0-.34-0.79c-0.6-.14-0.7.31-0.67,0.8a0.7,0.7,0,0,0-.89.59,0.45,0.45,0,0,0,.29.29A0.7,0.7,0,0,0,292.14,34Zm6,8a0.7,0.7,0,0,0,.89-0.59,0.45,0.45,0,0,0-.29-0.29,0.71,0.71,0,0,0-.6.89,0.7,0.7,0,0,0-.89.59,0.45,0.45,0,0,0,.29.29A0.71,0.71,0,0,0,298.15,42Zm5,6a0.7,0.7,0,0,0,.59.89,0.45,0.45,0,0,0,.29-0.29c-0.1-.46-0.41-0.68-0.73-0.05-0.34-1.19.29-2.08-.76-2.47C301.88,46.8,302,47.44,303.15,48Zm-33.5,5c0.47-.33.47-0.66,0-1C269.18,52.37,269.18,52.7,269.64,53Zm33,59c-0.47.32-.47,0.66,0,1C303.11,112.7,303.11,112.37,302.64,112Zm-0.51,2.49c-0.32-.47-0.66-0.47-1,0C301.48,115,301.81,115,302.13,114.53Zm1.51-.49c-0.47.32-.47,0.66,0,1C304.11,114.7,304.11,114.37,303.64,114Zm-93,9c0.47-.32.47-0.66,0-1C210.18,122.37,210.18,122.7,210.64,123Zm84,4c-0.47.32-.47,0.66,0,1C295.11,127.7,295.11,127.37,294.64,127Zm-26.49,13.49c0.32,0.47.66,0.47,1,0C268.81,140.07,268.48,140.07,268.15,140.53ZM255.64,152c0.47-.33.47-0.66,0-1C255.18,151.37,255.18,151.7,255.64,152Zm7.49-138.49c-0.32-.47-0.66-0.47-1,0C262.48,14,262.81,14,263.13,13.53Zm27,17c-0.32-.47-0.66-0.47-1,0C289.48,31,289.81,31,290.13,30.53Z"/><path class="cls-1" d="M199.14,221c0.71,2.19-2.36,2.64-2.11,4.62-5,5.18-8.41,11.6-13.1,17-0.67.78-.69,1.73-1.32,2.49-0.78.92-1.67,0.9-2.8,0.88-3.41-5.14-7.09-10.2-10.79-15.21s-6.72-10.49-11.6-15.63c1.19,4.75.62,8.7,0.71,12.63,0.1,4.16,0,8.32,0,12.48v24.56h-9.75V201.29c2.92-1,6.38.81,9.27-1a8.14,8.14,0,0,1,5.4,5.44c0.58,1.75,2,2.57,3.05,3.71a2.87,2.87,0,0,1,1,2.6,0.7,0.7,0,0,0-.89.59,0.45,0.45,0,0,0,.29.29,0.7,0.7,0,0,0,.59-0.89c4.35,4.58,7.12,10.36,11.42,15,1,1.08,1.44,2.68,2.36,4.46,7.07-10.47,14-20.67,21.28-30.36,3.84-.34,7.31.29,10.74-0.41a2.11,2.11,0,0,0,.71-0.68c0.69,4.08.92,52.89,0.29,64.85h-9.7v-49.6c-1.55,1.89-2.87,2.59-3.27,4.31a2,2,0,0,1-1.83,1.43,0.7,0.7,0,0,0-.59-0.89,0.45,0.45,0,0,0-.29.29A0.7,0.7,0,0,0,199.14,221Zm3-17a0.7,0.7,0,0,0,.89-0.59,0.45,0.45,0,0,0-.29-0.29,0.71,0.71,0,0,0-.6.89,0.7,0.7,0,0,0-.89.59,0.45,0.45,0,0,0,.29.29A0.71,0.71,0,0,0,202.15,204Zm-40.5,4a1.21,1.21,0,0,0,0-2A1.21,1.21,0,0,0,161.64,208Zm35,5c0.47-.33.47-0.66,0-1C196.18,212.37,196.18,212.7,196.64,213Zm-3,2c-0.47.33-.47,0.66,0,1C194.11,215.7,194.11,215.37,193.64,215Zm8.49,0.49c-0.33-.47-0.66-0.47-1,0C201.48,216,201.81,216,202.14,215.53Zm-10,4c-0.33-.47-0.66-0.47-1,0C191.48,220,191.81,220,192.14,219.53Zm-2,2c0.33,0.47.66,0.47,1,0C190.81,221.07,190.48,221.07,190.15,221.53ZM176.64,227c-0.47.33-.47,0.66,0,1C177.11,227.7,177.11,227.37,176.64,227Zm16,2c0.47-.33.47-0.66,0-1C192.18,228.37,192.18,228.7,192.64,229Zm-10.49,3.51c0.33,0.47.66,0.47,1,0C182.81,232.07,182.48,232.07,182.15,232.53Zm-6,5c-0.33-.47-0.66-0.47-1,0C175.48,238,175.81,238,176.14,237.53ZM212.64,260c-0.47.32-.47,0.66,0,1C213.11,260.7,213.11,260.37,212.64,260Z"/><path class="cls-1" d="M7.25,265V200.32c1-.26,1.56,1.51,2.49.56,0.75-.77,1.22-0.79,1.8.05,2-1.73,4.36-.75,6.54-0.85,3.49-.17,7,0,10.5-0.07,3.91-.13,7.63,1.76,11.59,1,4.55,2.31,9.76,3,13.67,7,2.9,2.92,4.6,6.58,7.31,9.54,0,2.44,1.75,4.43,1.86,6.68,0.08,1.7,1.24,2.93,1.16,4.58-0.09,2,.17,4-0.06,6-0.82,6.92-2.31,13.62-7.23,19-1,3.63-4.56,4.93-7.13,6.84s-5.92,2.76-9.06,3.22c-1.76.26-3.12,1.62-5.07,1.24a29.6,29.6,0,0,0-5.49-.07H7.25Zm10-8.83c6.24-2,12.45-.88,18.6-1.17h0.5c5.29-.14,9.54-3,12.61-6.65,4.31-5.09,5.5-13.09,5.2-17.77-0.09-1.48-1.47-2.39-1.14-4.09,0.4-2-.81-3.92-1.69-5.74-3.12-6.47-9-9.57-15.46-10.54-6.12-.92-12.5-0.2-18.63-0.2V256.2ZM19.64,207c-0.47.33-.47,0.66,0,1C20.11,207.7,20.11,207.37,19.64,207Zm30,1c0.47-.33.47-0.66,0-1C49.18,207.37,49.18,207.7,49.64,208Zm2,0c-0.47.33-.47,0.66,0,1C52.11,208.7,52.11,208.37,51.64,208Zm4.51,8.49c0.33,0.47.66,0.47,1,0C56.81,216.07,56.48,216.07,56.15,216.53ZM51.64,247c-0.47.33-.47,0.66,0,1C52.11,247.7,52.11,247.37,51.64,247Zm-8.49,7.49c0.33,0.47.66,0.47,1,0C43.81,254.07,43.48,254.07,43.15,254.53Zm12,0c-0.33-.47-0.66-0.47-1,0C54.48,255,54.81,255,55.14,254.53Zm-45,8c0.33,0.47.66,0.47,1,0C10.81,262.07,10.48,262.07,10.15,262.53Z"/><path class="cls-1" d="M433.14,207c3.32,2.43,5.26,6.08,8,9a1.85,1.85,0,0,1,0,1h-1a0.7,0.7,0,0,0-.59-0.89,0.45,0.45,0,0,0-.29.29,0.7,0.7,0,0,0,.89.59,0.85,0.85,0,0,0,1,1,1.7,1.7,0,0,0,.34.79c0.6,0.14.7-.31,0.66-0.79,3.25,1.48,4.33,5,6.58,7.39,2.41,2.58,4.11,5.92,6.76,8.41a2.54,2.54,0,0,1,.65,2.2,0.7,0.7,0,0,0-.89.59,0.45,0.45,0,0,0,.29.29,0.7,0.7,0,0,0,.59-0.89h1.55c1.75,4,5,6.87,8.33,11.12v-47h9.9v64.67h-7.65c-3.44-4.74-8-9-11.34-14.4-1.6-2.55-4-4.6-6-7-4.19-5.06-8.44-10.06-12.28-15.4a15.58,15.58,0,0,0-2.82-2.82,2.37,2.37,0,0,1-.68-2.23,0.7,0.7,0,0,0,.89-0.59,0.45,0.45,0,0,0-.29-0.29,0.7,0.7,0,0,0-.59.89c-1.7-.33-2.1-2.34-4-2.92v44.82h-9.83v-64.6c2.46,1.23,4.79-.42,7.32-0.29,0.5,1.93,2.06,3.13,3.46,4.41a2.7,2.7,0,0,1,1,2.58h-1a0.7,0.7,0,0,0-.59-0.89,0.45,0.45,0,0,0-.29.29,0.7,0.7,0,0,0,.89.59c0.22,0.62-.52,1.58,1,2v-2Zm25,37a0.7,0.7,0,0,0,.59.89,0.45,0.45,0,0,0,.29-0.29,0.71,0.71,0,0,0-.89-0.6,0.7,0.7,0,0,0-.59-0.89,0.45,0.45,0,0,0-.29.29A0.71,0.71,0,0,0,458.15,244Zm-8-8a0.7,0.7,0,0,0,.59.89,0.45,0.45,0,0,0,.29-0.29,0.71,0.71,0,0,0-.89-0.6,0.7,0.7,0,0,0-.59-0.89,0.45,0.45,0,0,0-.29.29A0.71,0.71,0,0,0,450.15,236Zm-21-27a0.7,0.7,0,0,0,.89-0.59,0.45,0.45,0,0,0-.29-0.29,0.71,0.71,0,0,0-.6.89,0.7,0.7,0,0,0-.89.59,0.45,0.45,0,0,0,.29.29A0.71,0.71,0,0,0,429.15,209Zm38,51a0.7,0.7,0,0,0-.59-0.89,0.45,0.45,0,0,0-.29.29c0.1,0.46.41,0.68,0.73,0.05,0.34,1.19-.29,2.08.76,2.47C468.41,261.26,468.32,260.63,467.14,260Zm-3-12a0.7,0.7,0,0,0-.59-0.89,0.45,0.45,0,0,0-.29.29c0.1,0.46.41,0.68,0.73,0.05,0.34,1.19-.29,2.08.76,2.47C465.41,249.26,465.32,248.63,464.14,248Zm-29-37.5c-0.32-.47-0.66-0.47-1,0C434.48,211,434.81,211,435.13,210.53ZM429.64,222c-0.47.33-.47,0.66,0,1C430.11,222.7,430.11,222.37,429.64,222Zm15.51,3.49c0.32,0.47.66,0.47,1,0C445.81,225.07,445.48,225.07,445.15,225.53Zm-5,1c-0.32-.47-0.66-0.47-1,0C439.48,227,439.81,227,440.13,226.53Zm0.51,2.49c0.47-.33.47-0.66,0-1C440.18,228.37,440.18,228.7,440.64,229Zm2,2c0.47-.33.47-0.66,0-1C442.18,230.37,442.18,230.7,442.64,231Zm4.51,5.51c0.32,0.47.66,0.47,1,0C447.81,236.07,447.48,236.07,447.15,236.53Zm2,2c0.32,0.47.66,0.47,1,0C449.81,238.07,449.48,238.07,449.15,238.53Zm2.49,0.49c0.47-.33.47-0.66,0-1C451.18,238.37,451.18,238.7,451.64,239Zm5,0c0.47-.33.47-0.66,0-1C456.18,238.37,456.18,238.7,456.64,239Zm11-1c-0.47.33-.47,0.66,0,1C468.11,238.7,468.11,238.37,467.64,238Zm-17,3c0.47-.33.47-0.66,0-1C450.18,240.37,450.18,240.7,450.64,241Zm16,7c0.47-.33.47-0.66,0-1C466.18,247.37,466.18,247.7,466.64,248Zm-8,2c-0.47.33-.47,0.66,0,1C459.11,250.7,459.11,250.37,458.64,250Zm4.49,0.49c-0.32-.47-0.66-0.47-1,0C462.48,251,462.81,251,463.13,250.53Zm-34,13c-0.32-.47-0.66-0.47-1,0C428.48,264,428.81,264,429.13,263.53Z"/><path class="cls-1" d="M298.76,246.27c-1-3.78-.82-8.35.24-10.5-1.71-2.94-.64-6-0.82-8.84s0-6,0-9c0-2.83,0-5.66,0-8.5a55.45,55.45,0,0,1,.18-8.09l1.16-1.16c2-.35,4-0.41,5.63.86,1.07-.1,1.28-1.44,2-1.1,1.58,0.36.55,2.1,1.82,2.35a1.2,1.2,0,0,1,.09.34c-1,.64-0.87,1.67-0.87,2.65q0,28.48,0,57a1.81,1.81,0,0,0,.5.78,5.34,5.34,0,0,0,.47.47c-2.5,2.95-5.79.83-8.21,1.52l-36.62-45.6v45.35h-10V200.13c1.73,0.15,3.64-.9,5.34.85l1-.94a57,57,0,0,1,5.73,6.59c1.68,2.34,3.71,4.53,5.42,6.83s3.88,4.21,5.4,6.69a43.93,43.93,0,0,0,5.38,6.76c2,2.12,3.18,4.83,5.05,6.85s3.23,4.5,5.2,6.25S295.64,245.12,298.76,246.27ZM296.15,256a0.7,0.7,0,0,0,.59.89,0.45,0.45,0,0,0,.29-0.29,0.71,0.71,0,0,0-.89-0.6,0.7,0.7,0,0,0-.59-0.89,0.45,0.45,0,0,0-.29.29A0.71,0.71,0,0,0,296.15,256Zm-15-18a0.7,0.7,0,0,0,.59.89,0.45,0.45,0,0,0,.29-0.29,0.71,0.71,0,0,0-.89-0.6,0.7,0.7,0,0,0-.59-0.89,0.45,0.45,0,0,0-.29.29A0.71,0.71,0,0,0,281.15,238Zm-19.5-35c-0.47.33-.47,0.66,0,1C262.11,203.7,262.11,203.37,261.64,203Zm5,7c0.47-.33.47-0.66,0-1C266.18,209.37,266.18,209.7,266.64,210Zm3,6c0.47-.33.47-0.66,0-1C269.18,215.37,269.18,215.7,269.64,216Zm0,3c0.47-.33.47-0.66,0-1C269.18,218.37,269.18,218.7,269.64,219Zm3.49-.49c-0.32-.47-0.66-0.47-1,0C272.48,219,272.81,219,273.13,218.53Zm-12,3c0.32,0.47.66,0.47,1,0C261.81,221.07,261.48,221.07,261.15,221.53Zm0,2c-0.32-.47-0.66-0.47-1,0C260.48,224,260.81,224,261.13,223.53Zm16.51-.49c-0.47.33-.47,0.66,0,1C278.11,223.7,278.11,223.37,277.64,223Zm1.51,2.49c0.32,0.47.66,0.47,1,0C279.81,225.07,279.48,225.07,279.15,225.53Zm1.49,1.51c-0.47.33-.47,0.66,0,1C281.11,227.7,281.11,227.37,280.64,227Zm4.49,5.49c-0.32-.47-0.66-0.47-1,0C284.48,233,284.81,233,285.13,232.53Zm0,11c0.32,0.47.66,0.47,1,0C285.81,243.07,285.48,243.07,285.15,243.53Zm5.49,3.51c-0.47.33-.47,0.66,0,1C291.11,247.7,291.11,247.37,290.64,247Zm6,1c0.47-.33.47-0.66,0-1C296.18,247.37,296.18,247.7,296.64,248Zm-3,4c-0.47.33-.47,0.66,0,1C294.11,252.7,294.11,252.37,293.64,252Zm3.49,0.49c-0.32-.47-0.66-0.47-1,0C296.48,253,296.81,253,297.13,252.53Z"/><path class="cls-1" d="M104,266c-3.54-.11-7,0.1-10.61-0.84A40.88,40.88,0,0,1,87.8,263c-4.22-1.8-8.89-6.26-11.59-10.36-2.49-3.78-4.94-12.6-5.1-17.37a37.17,37.17,0,0,1,2-14.65,32.23,32.23,0,0,1,9.54-13.85c4.45-3.74,9.5-5.17,14.74-6.74,4.12-1.24,8-.89,12.19-0.14a35.08,35.08,0,0,1,10.25,3.1,29.21,29.21,0,0,1,11.21,9.66,31.61,31.61,0,0,1,5.26,14.84c0.15,2.13.93,4.36,0.78,6.58a41.94,41.94,0,0,1-5,17.88,26.24,26.24,0,0,1-9.2,9.17C116.72,265,112.13,266.52,104,266ZM81.31,232.69c-0.93,5.72,1,10.48,3.82,15A19.23,19.23,0,0,0,100.25,257a47.18,47.18,0,0,0,6.48,0A20.77,20.77,0,0,0,120,251.69c5-4.34,6.29-10.3,7.21-16.46,0.52-3.48-1-6.67-1.13-10.06-0.05-1.25-1.37-2.39-1.88-3.67-2.43-6.16-4.19-8.14-9.78-10.73-2.3-1.07-4.62-2-7.26-1.74-3.56-2.8-7.05,1.25-10.59.11-2.7,1.23-5.64,2-7.61,4.55a24.23,24.23,0,0,1-3.52,3.52,7.13,7.13,0,0,0-2.17,3.59C82.21,224.77,80.09,228.59,81.31,232.69ZM88.64,205c0.47-.33.47-0.66,0-1C88.18,204.37,88.18,204.7,88.64,205Zm4-1c-0.47.33-.47,0.66,0,1C93.11,204.7,93.11,204.37,92.64,204Zm27,0c-0.47.33-.47,0.66,0,1C120.11,204.7,120.11,204.37,119.64,204Zm-3.49,1.49c0.32,0.47.66,0.47,1,0C116.81,205.07,116.48,205.07,116.15,205.53Zm-30,1c0.32,0.47.66,0.47,1,0C86.81,206.07,86.48,206.07,86.15,206.53Zm29,2c0.32,0.47.66,0.47,1,0C115.81,208.07,115.48,208.07,115.15,208.53Zm5.49,4.49c0.47-.33.47-0.66,0-1C120.18,212.37,120.18,212.7,120.64,213Zm-45,6c0.47-.33.47-0.66,0-1C75.18,218.37,75.18,218.7,75.64,219Zm57.51,3.51c0.33,0.47.66,0.47,1,0C133.81,222.07,133.48,222.07,133.15,222.53Zm-5,4c-0.33-.47-0.66-0.47-1,0C127.48,227,127.81,227,128.14,226.53Zm-54,19c0.32,0.47.66,0.47,1,0C74.81,245.07,74.48,245.07,74.15,245.53Zm13,7c-0.32-.47-0.66-0.47-1,0C86.48,253,86.81,253,87.13,252.53ZM80.64,255c-0.47.33-.47,0.66,0,1C81.11,255.7,81.11,255.37,80.64,255Zm6.49,5.49c-0.32-.47-0.66-0.47-1,0C86.48,261,86.81,261,87.13,260.53Z"/><path class="cls-1" d="M346.15,243a35.72,35.72,0,0,1-2-6.87c-0.69-5.57.83-10.89,2.15-16.14a19.06,19.06,0,0,1,4.23-7.68c3.73-4.19,7.52-8.5,13.17-10.33,1.2-2,4,.1,5.18-2,4.39-.3,8.78-2.47,13.17,0a0.91,0.91,0,0,0,.49,0c4.88-.57,8.77,1.91,12.87,3.94a17.82,17.82,0,0,1,5.28,4.12,37.91,37.91,0,0,1,8.61,16.45,34.24,34.24,0,0,1,.75,12.11c-0.78,8.12-3.47,15.75-9.58,21.45-5.29,4.94-11.65,8-19.17,7.94-3.5,0-7,.22-10.49-0.06a21.6,21.6,0,0,1-10.92-3.75,2,2,0,0,1-1-1.11c0.92-.26,1.81.38,2.19-0.68-0.69-.67-1.33-0.58-2.19.68-2.09.11-3.54-1.82-4.92-3-3.59-3.07-5.51-7.52-7.73-11.64-0.49-.9-0.07-2.28-0.07-3.44a0.7,0.7,0,0,0,.89-0.59,0.45,0.45,0,0,0-.29-0.29A0.7,0.7,0,0,0,346.15,243Zm52,15a0.7,0.7,0,0,0,.89-0.59,0.45,0.45,0,0,0-.29-0.29,0.71,0.71,0,0,0-.6.89,0.7,0.7,0,0,0-.89.59,0.45,0.45,0,0,0,.29.29A0.71,0.71,0,0,0,398.15,258Zm-3-1a0.7,0.7,0,0,0,.59.89,0.45,0.45,0,0,0,.29-0.29,0.7,0.7,0,0,0-.89-0.6c0-.33,0-0.67,0-1a0.7,0.7,0,0,0,.89-0.59,0.45,0.45,0,0,0-.29-0.29,0.7,0.7,0,0,0-.6.89,1.7,1.7,0,0,0-.79.34C394.21,257,394.66,257.07,395.15,257Zm2-4a0.7,0.7,0,0,0,.59.89,0.45,0.45,0,0,0,.29-0.29,0.71,0.71,0,0,0-.89-0.6,0.7,0.7,0,0,0-.59-0.89,0.45,0.45,0,0,0-.29.29A0.71,0.71,0,0,0,397.15,253Zm-34-41a0.7,0.7,0,0,0-.59-0.89,0.45,0.45,0,0,0-.29.29,0.7,0.7,0,0,0,.89.6,14.28,14.28,0,0,1-5,5,0.7,0.7,0,0,0-.59-0.89,0.45,0.45,0,0,0-.29.29,0.7,0.7,0,0,0,.89.6c-1.33,1.26-1.08,3.15-1.88,4.69a21.76,21.76,0,0,0-2.17,9,33.14,33.14,0,0,0,1.09,10c1.07,4.11,2.75,8.12,6.16,10.76,1.48,1.15,2.9,2.44,4.42,3.51a4.48,4.48,0,0,1,4.37,2,0.7,0.7,0,0,0-.89.59,0.45,0.45,0,0,0,.29.29,0.7,0.7,0,0,0,.6-0.89c2.82,0,5.64,0,8.46,0,5.52-.12,10.62-1.37,14.64-5.54a4.93,4.93,0,0,1,1.68-.72,0.91,0.91,0,0,0,.21-0.4c-0.12-.76.54-1.12,0.81-1.67,2.5-5.1,4.62-10.15,4.35-16.18a29.34,29.34,0,0,0-5.48-16.17c-4.28-6-11.08-7.31-17.89-8.36-1.49-.23-2.08,1.45-3.58,1.09-2.67-.65-4.86.82-7.15,1.9C365.25,211.41,364.44,212.55,363.14,212Zm-4.5,2a1.21,1.21,0,0,0,0-2A1.21,1.21,0,0,0,358.64,214Zm28.51-7.51c0.32,0.47.66,0.47,1,0C387.81,206.07,387.48,206.07,387.15,206.53Zm-15.51.51c-0.47.33-.47,0.66,0,1C372.11,207.7,372.11,207.37,371.64,207Zm26,0c-0.47.33-.47,0.66,0,1C398.11,207.7,398.11,207.37,397.64,207Zm-29.51,1.49c-0.32-.47-0.66-0.47-1,0C367.48,209,367.81,209,368.13,208.53Zm-13,1c0.32,0.47.66,0.47,1,0C355.81,209.07,355.48,209.07,355.15,209.53ZM399.64,210c0.47-.33.47-0.66,0-1C399.18,209.37,399.18,209.7,399.64,210Zm-5.49,1.51c0.32,0.47.66,0.47,1,0C394.81,211.07,394.48,211.07,394.15,211.53ZM350.64,219c0.47-.33.47-0.66,0-1C350.18,218.37,350.18,218.7,350.64,219Zm56.49,26.51c-0.32-.47-0.66-0.47-1,0C406.48,246,406.81,246,407.13,245.53ZM354.64,252c-0.47.33-.47,0.66,0,1C355.11,252.7,355.11,252.37,354.64,252Z"/><path class="cls-2" d="M209.31,62.12H249v39.43c-3.92.69-26.25,0.89-39.67,0.31V62.12Zm5,5V95.79h30.23c-1.81-1.14-1.38-2.55-1.38-3.82,0-8.27,0-16.53,0-24.86H214.31Zm-2.16,29.42c0.33,0.47.66,0.47,1,0C212.81,96.07,212.48,96.07,212.15,96.53Zm6,2c-0.33-.47-0.66-0.47-1,0C217.48,99,217.81,99,218.14,98.53Z"/><path class="cls-1" d="M333,264.94H323.3V201.34l1.39-1.2H333v64.81Z"/><path class="cls-1" d="M239,264.93h-9.67v-64.8a18.91,18.91,0,0,1,5.61.15,13.87,13.87,0,0,0,4.06-.18v64.82Z"/><path class="cls-2" d="M273.14,58a0.85,0.85,0,0,1-1-1h1v1Z"/><path class="cls-1" d="M441.14,217a0.85,0.85,0,0,1,1,1h-1v-1Z"/></svg>