<svg id="fondo_negro" data-name="fondo negro" xmlns="http://www.w3.org/2000/svg" viewBox="0 0 132.44 45"><defs><style>.cls-1,.cls-2{fill:#fff;stroke-miterlimit:10;}.cls-1{stroke:#00ad45;stroke-width:2px;}.cls-2{stroke:#a0a8a0;}</style></defs><title>ebg_logo</title><rect width="28.13" height="45"/><path d="M33.45,43.1V36.62h1.31V43.1H33.45Z"/><path d="M35.95,43.1V36.62h0.92L38.31,40V36.62H39.4V43.1H38.52l-1.44-3.58V43.1H35.95Z"/><path d="M42.24,43.2a1.76,1.76,0,0,1-1-.28,1.5,1.5,0,0,1-.55-0.78A3.85,3.85,0,0,1,40.48,41V38.79a3.83,3.83,0,0,1,.17-1.2,1.44,1.44,0,0,1,.59-0.78,2.07,2.07,0,0,1,1.14-.27,2.22,2.22,0,0,1,1.1.23,1.32,1.32,0,0,1,.58.66,2.62,2.62,0,0,1,.18,1v0.38H42.95V38.36a2.81,2.81,0,0,0,0-.45,0.54,0.54,0,0,0-.15-0.31,0.52,0.52,0,0,0-.37-0.11,0.49,0.49,0,0,0-.38.14,0.66,0.66,0,0,0-.15.35,3.15,3.15,0,0,0,0,.45V41.3a2.24,2.24,0,0,0,0,.49,0.62,0.62,0,0,0,.18.34,0.55,0.55,0,0,0,.38.12,0.53,0.53,0,0,0,.38-0.13A0.68,0.68,0,0,0,43,41.76a2.21,2.21,0,0,0,.05-0.5V40.57H42.43v-0.8h1.82V43.1H43.39l-0.08-.58a1.19,1.19,0,0,1-.38.49A1.12,1.12,0,0,1,42.24,43.2Z"/><path d="M45.36,43.1V36.62h2.82v0.91h-1.5v1.72h1.16v0.92H46.68v2H48.2v0.9H45.36Z"/><path d="M49.06,43.1V36.62H50L51.42,40V36.62h1.09V43.1H51.63l-1.44-3.58V43.1H49.06Z"/><path d="M53.71,43.1V36.62H55V43.1H53.71Z"/><path d="M56.21,43.1V36.62H59v0.91h-1.5v1.72h1.16v0.92H57.53v2h1.52v0.9H56.21Z"/><path d="M59.92,43.1V36.62H61.6a3.75,3.75,0,0,1,1.12.15,1.31,1.31,0,0,1,.72.52,1.85,1.85,0,0,1,.25,1,3.34,3.34,0,0,1-.07.71,1.37,1.37,0,0,1-.24.54,1.18,1.18,0,0,1-.48.36l0.9,3.16H62.44L61.7,40.17H61.24V43.1H59.92Zm1.32-3.72h0.38a1,1,0,0,0,.5-0.1A0.57,0.57,0,0,0,62.38,39a1.57,1.57,0,0,0,.08-0.52,1.19,1.19,0,0,0-.16-0.68,0.7,0.7,0,0,0-.61-0.24H61.24v1.86Z"/><path d="M64.77,43.1V36.62h1.31V43.1H64.77Zm0.26-7,0.5-1.6h1.22l-1,1.6H65Z"/><path d="M67,43.1l1.26-6.48h1.46l1.25,6.48H69.7l-0.23-1.42h-1L68.2,43.1H67Zm1.61-2.23h0.78l-0.39-2.62Z"/><path d="M74.78,43.1V40.53l-1.26-3.91h1.24l0.7,2.28,0.65-2.28h1.2l-1.25,3.91V43.1H74.78Z"/><path d="M82,43.19a2.08,2.08,0,0,1-1.14-.27,1.44,1.44,0,0,1-.59-0.76A3.44,3.44,0,0,1,80.11,41V38.71a3.55,3.55,0,0,1,.17-1.16,1.4,1.4,0,0,1,.59-0.75A2.13,2.13,0,0,1,82,36.54a2.17,2.17,0,0,1,1.09.23,1.28,1.28,0,0,1,.56.66,2.73,2.73,0,0,1,.16,1V39H82.54V38.35a3.34,3.34,0,0,0,0-.42,0.58,0.58,0,0,0-.13-0.32A0.48,0.48,0,0,0,82,37.49a0.51,0.51,0,0,0-.38.13,0.61,0.61,0,0,0-.15.33,2.92,2.92,0,0,0,0,.45v2.94a2.21,2.21,0,0,0,0,.48,0.55,0.55,0,0,0,.17.31,0.53,0.53,0,0,0,.36.11,0.46,0.46,0,0,0,.36-0.12,0.61,0.61,0,0,0,.14-0.33,3.31,3.31,0,0,0,0-.44V40.71h1.28v0.54a2.92,2.92,0,0,1-.16,1,1.36,1.36,0,0,1-.55.69A2,2,0,0,1,82,43.19Z"/><path d="M86.64,43.19a2.14,2.14,0,0,1-1.13-.26,1.43,1.43,0,0,1-.6-0.73,3.22,3.22,0,0,1-.18-1.14V38.65a3.19,3.19,0,0,1,.18-1.14,1.38,1.38,0,0,1,.6-0.72,2.7,2.7,0,0,1,2.27,0,1.4,1.4,0,0,1,.6.72,3.16,3.16,0,0,1,.18,1.13v2.42a3.22,3.22,0,0,1-.18,1.14,1.42,1.42,0,0,1-.6.73A2.18,2.18,0,0,1,86.64,43.19Zm0-1A0.52,0.52,0,0,0,87,42.12a0.58,0.58,0,0,0,.16-0.31,2.12,2.12,0,0,0,0-.42V38.33a2.07,2.07,0,0,0,0-.42A0.58,0.58,0,0,0,87,37.6a0.53,0.53,0,0,0-.38-0.12,0.5,0.5,0,0,0-.36.12,0.58,0.58,0,0,0-.16.31,2,2,0,0,0,0,.42v3.06a2.29,2.29,0,0,0,0,.42,0.55,0.55,0,0,0,.16.31A0.51,0.51,0,0,0,86.64,42.24Z"/><path d="M89.64,43.1V36.62h0.92L92,40V36.62h1.09V43.1H92.2l-1.44-3.58V43.1H89.64Z"/><path d="M95.95,43.19a2.06,2.06,0,0,1-1-.22,1.4,1.4,0,0,1-.6-0.66,3.06,3.06,0,0,1-.24-1.13L95.24,41a3.35,3.35,0,0,0,.08.67,0.81,0.81,0,0,0,.21.4,0.49,0.49,0,0,0,.35.13A0.37,0.37,0,0,0,96.23,42a0.72,0.72,0,0,0,.09-0.37,1.15,1.15,0,0,0-.2-0.68,3.3,3.3,0,0,0-.52-0.56l-0.67-.58a2.68,2.68,0,0,1-.59-0.69,1.82,1.82,0,0,1-.23-0.94A1.58,1.58,0,0,1,94.59,37a1.83,1.83,0,0,1,1.28-.43,1.76,1.76,0,0,1,.8.16,1.23,1.23,0,0,1,.48.43,1.78,1.78,0,0,1,.24.58,4,4,0,0,1,.08.63l-1.13.17c0-.2,0-0.37-0.05-0.52a0.71,0.71,0,0,0-.14-0.35,0.4,0.4,0,0,0-.32-0.13,0.38,0.38,0,0,0-.34.17,0.68,0.68,0,0,0-.11.38,1,1,0,0,0,.16.56,2.82,2.82,0,0,0,.43.46l0.66,0.58a3.72,3.72,0,0,1,.7.8,2,2,0,0,1,.29,1.12,1.64,1.64,0,0,1-.21.82,1.48,1.48,0,0,1-.58.58A1.77,1.77,0,0,1,95.95,43.19Z"/><path d="M99.12,43.1v-5.5h-1v-1h3.31v1h-1v5.5H99.12Z"/><path d="M102.21,43.1V36.62h1.68a3.75,3.75,0,0,1,1.12.15,1.31,1.31,0,0,1,.72.52,1.85,1.85,0,0,1,.25,1,3.34,3.34,0,0,1-.07.71,1.37,1.37,0,0,1-.24.54,1.18,1.18,0,0,1-.48.36l0.9,3.16h-1.35L104,40.17h-0.46V43.1h-1.32Zm1.32-3.72h0.38a1,1,0,0,0,.5-0.1,0.57,0.57,0,0,0,.26-0.32,1.57,1.57,0,0,0,.08-0.52,1.19,1.19,0,0,0-.16-0.68,0.7,0.7,0,0,0-.61-0.24h-0.45v1.86Z"/><path d="M108.87,43.19a2.18,2.18,0,0,1-1.14-.25,1.34,1.34,0,0,1-.57-0.73,3.57,3.57,0,0,1-.16-1.16V36.62h1.3v4.62a3,3,0,0,0,0,.47,0.74,0.74,0,0,0,.16.38,0.48,0.48,0,0,0,.38.14,0.49,0.49,0,0,0,.39-0.14,0.72,0.72,0,0,0,.16-0.38,3.6,3.6,0,0,0,0-.47V36.62h1.3v4.43a3.57,3.57,0,0,1-.16,1.16,1.34,1.34,0,0,1-.57.73A2.18,2.18,0,0,1,108.87,43.19Z"/><path d="M113.67,43.19a2.08,2.08,0,0,1-1.14-.27,1.44,1.44,0,0,1-.59-0.76,3.44,3.44,0,0,1-.17-1.12V38.71a3.55,3.55,0,0,1,.17-1.16,1.4,1.4,0,0,1,.59-0.75,2.13,2.13,0,0,1,1.14-.26,2.17,2.17,0,0,1,1.09.23,1.28,1.28,0,0,1,.56.66,2.73,2.73,0,0,1,.16,1V39H114.2V38.35a3.34,3.34,0,0,0,0-.42,0.58,0.58,0,0,0-.13-0.32,0.48,0.48,0,0,0-.37-0.12,0.51,0.51,0,0,0-.38.13,0.61,0.61,0,0,0-.15.33,2.92,2.92,0,0,0,0,.45v2.94a2.21,2.21,0,0,0,0,.48,0.55,0.55,0,0,0,.17.31,0.53,0.53,0,0,0,.36.11,0.46,0.46,0,0,0,.36-0.12,0.61,0.61,0,0,0,.14-0.33,3.31,3.31,0,0,0,0-.44V40.71h1.28v0.54a2.92,2.92,0,0,1-.16,1,1.36,1.36,0,0,1-.55.69A2,2,0,0,1,113.67,43.19Z"/><path d="M118.29,43.19a2.08,2.08,0,0,1-1.14-.27,1.44,1.44,0,0,1-.59-0.76A3.44,3.44,0,0,1,116.4,41V38.71a3.55,3.55,0,0,1,.17-1.16,1.4,1.4,0,0,1,.59-0.75,2.13,2.13,0,0,1,1.14-.26,2.17,2.17,0,0,1,1.09.23,1.28,1.28,0,0,1,.56.66,2.73,2.73,0,0,1,.16,1V39h-1.28V38.35a3.34,3.34,0,0,0,0-.42,0.58,0.58,0,0,0-.13-0.32,0.48,0.48,0,0,0-.37-0.12,0.51,0.51,0,0,0-.38.13,0.61,0.61,0,0,0-.15.33,2.92,2.92,0,0,0,0,.45v2.94a2.21,2.21,0,0,0,0,.48,0.55,0.55,0,0,0,.17.31,0.53,0.53,0,0,0,.36.11,0.46,0.46,0,0,0,.36-0.12,0.61,0.61,0,0,0,.14-0.33,3.31,3.31,0,0,0,0-.44V40.71h1.28v0.54a2.92,2.92,0,0,1-.16,1,1.36,1.36,0,0,1-.55.69A2,2,0,0,1,118.29,43.19Z"/><path d="M121.13,43.1V36.62h1.31V43.1h-1.31Z"/><path d="M125.44,43.19a2.14,2.14,0,0,1-1.13-.26,1.43,1.43,0,0,1-.6-0.73,3.22,3.22,0,0,1-.18-1.14V38.65a3.19,3.19,0,0,1,.18-1.14,1.38,1.38,0,0,1,.6-0.72,2.7,2.7,0,0,1,2.27,0,1.4,1.4,0,0,1,.6.72,3.16,3.16,0,0,1,.18,1.13v2.42a3.22,3.22,0,0,1-.18,1.14,1.42,1.42,0,0,1-.6.73A2.18,2.18,0,0,1,125.44,43.19Zm0-1a0.52,0.52,0,0,0,.38-0.12,0.58,0.58,0,0,0,.16-0.31,2.12,2.12,0,0,0,0-.42V38.33a2.07,2.07,0,0,0,0-.42,0.58,0.58,0,0,0-.16-0.31,0.53,0.53,0,0,0-.38-0.12,0.5,0.5,0,0,0-.36.12,0.58,0.58,0,0,0-.16.31,2,2,0,0,0,0,.42v3.06a2.29,2.29,0,0,0,0,.42,0.55,0.55,0,0,0,.16.31A0.51,0.51,0,0,0,125.44,42.24Zm-0.38-6.1,0.5-1.6h1.22l-1,1.6h-0.74Z"/><path d="M128.44,43.1V36.62h0.92L130.8,40V36.62h1.09V43.1H131l-1.44-3.58V43.1h-1.13Z"/><path class="cls-1" d="M25,30.17H3.34V2.87H25V8.33H10.36v5.26h11.5v5.46H10.36v5.66H25v5.46Z"/><path class="cls-2" d="M4.47,33.23h5.6a2.81,2.81,0,0,1,2,.62,2.53,2.53,0,0,1,.64,1.9,2.35,2.35,0,0,1-.36,1.36,2,2,0,0,1-.9.73A2.17,2.17,0,0,1,13,39.36a3.28,3.28,0,0,1,.14,1,2.75,2.75,0,0,1-.64,2,2.75,2.75,0,0,1-2,.64h-6v-9.8ZM10.21,36a0.74,0.74,0,0,0-.84-0.84H7v2H9.37a0.74,0.74,0,0,0,.84-0.84V36ZM10.63,40a0.74,0.74,0,0,0-.84-0.84H7v2h2.8a0.74,0.74,0,0,0,.84-0.84V40Z"/><path class="cls-2" d="M24.8,42.82a57.14,57.14,0,0,1-6,.35,2.75,2.75,0,0,1-2-.64,2.75,2.75,0,0,1-.64-2V36a2.93,2.93,0,0,1,.67-2.13,2.93,2.93,0,0,1,2.14-.67h5v2H19.48a0.74,0.74,0,0,0-.84.84v4.48a0.65,0.65,0,0,0,.7.7q1.61,0,2.94-.07v-2H20.46V37.43H24.8v5.39Z"/><path d="M39.24,7.59q0,0.35,0,.66a2.2,2.2,0,0,1-.12.58,1.38,1.38,0,0,1-.29.48,1.57,1.57,0,0,1-.53.36,3.44,3.44,0,0,1-.84.23,7.94,7.94,0,0,1-1.22.08A7.36,7.36,0,0,1,35,9.88a3.65,3.65,0,0,1-.84-0.23,1.61,1.61,0,0,1-.52-0.34,1.3,1.3,0,0,1-.27-0.4,1.42,1.42,0,0,1-.11-0.43c0-.14,0-0.28,0-0.41V5.14c0-.13,0-0.27,0-0.41a1.38,1.38,0,0,1,.11-0.42,1.32,1.32,0,0,1,.27-0.4,1.62,1.62,0,0,1,.52-0.34A3.65,3.65,0,0,1,35,3.33a7.36,7.36,0,0,1,1.24-.09,7.18,7.18,0,0,1,1.22.09,3.72,3.72,0,0,1,.84.23,1.72,1.72,0,0,1,.53.34,1.45,1.45,0,0,1,.29.4,1.37,1.37,0,0,1,.12.43,3.6,3.6,0,0,1,0,.41V7H35.67V8.63h1.15v-1h2.42ZM35.67,6.1h1.15V4.58H35.67V6.1Z"/><path d="M41.24,9.79V3.45h2l0.22,0.82a1.57,1.57,0,0,1,.33-0.45,2,2,0,0,1,.46-0.32,2.25,2.25,0,0,1,.54-0.2,2.57,2.57,0,0,1,.59-0.07,2.12,2.12,0,0,1,.68.11,1.78,1.78,0,0,1,.6.34,1.69,1.69,0,0,1,.42.57,1.94,1.94,0,0,1,.16.81V9.79H44.82V4.62H43.66V9.79H41.24Z"/><path d="M48.92,3.45h2.52l0.48,4.3,0.49-4.3h2.52L53.42,9.79h-3Z"/><path d="M59.4,1.45V2.6H57V1.45H59.4Zm0,8.35H57V3.45H59.4V9.79Z"/><path d="M61.45,9.79V3.45h2l0.27,1A1.48,1.48,0,0,1,63.84,4a1.41,1.41,0,0,1,.24-0.32,1.33,1.33,0,0,1,.29-0.22,1.68,1.68,0,0,1,.31-0.14L65,3.26l0.26,0V5.16l-1.36.39V9.79H61.45Z"/><path d="M70.13,10a7.46,7.46,0,0,1-1.24-.09A3.74,3.74,0,0,1,68,9.66a1.63,1.63,0,0,1-.53-0.34,1.41,1.41,0,0,1-.28-0.41,1.38,1.38,0,0,1-.11-0.43,3.83,3.83,0,0,1,0-.41V5.15a3.83,3.83,0,0,1,0-.41,1.4,1.4,0,0,1,.11-0.43,1.36,1.36,0,0,1,.28-0.41A1.66,1.66,0,0,1,68,3.56a3.74,3.74,0,0,1,.85-0.23,7.46,7.46,0,0,1,1.24-.09,7.32,7.32,0,0,1,1.23.09,3.61,3.61,0,0,1,.84.23,1.59,1.59,0,0,1,.51.34A1.31,1.31,0,0,1,73,4.3a1.41,1.41,0,0,1,.11.43c0,0.14,0,.28,0,0.41V8.08c0,0.13,0,.27,0,0.41a1.39,1.39,0,0,1-.11.43,1.35,1.35,0,0,1-.27.41,1.56,1.56,0,0,1-.51.34,3.61,3.61,0,0,1-.84.23A7.32,7.32,0,0,1,70.13,10ZM69.53,8.65h1.15V4.58H69.53V8.65Z"/><path d="M75.13,9.79V3.45h2l0.22,0.82a1.57,1.57,0,0,1,.33-0.45,2,2,0,0,1,.46-0.32,2.25,2.25,0,0,1,.54-0.2,2.57,2.57,0,0,1,.59-0.07,2.12,2.12,0,0,1,.68.11,1.78,1.78,0,0,1,.6.34,1.69,1.69,0,0,1,.42.57,1.94,1.94,0,0,1,.16.81V9.79H78.7V4.62H77.55V9.79H75.13Z"/><path d="M83.2,9.79V3.45h2l0.23,0.78a1.51,1.51,0,0,1,.34-0.43,2,2,0,0,1,.47-0.31,2.45,2.45,0,0,1,.55-0.19,2.71,2.71,0,0,1,.58-0.06,2.23,2.23,0,0,1,.49.05,1.87,1.87,0,0,1,.46.17,1.79,1.79,0,0,1,.39.28,1.55,1.55,0,0,1,.3.39,1.55,1.55,0,0,1,.35-0.38,2.13,2.13,0,0,1,.46-0.28,2.61,2.61,0,0,1,.54-0.17,2.83,2.83,0,0,1,.56-0.06,2.17,2.17,0,0,1,.69.11,1.76,1.76,0,0,1,.6.34,1.72,1.72,0,0,1,.42.57,1.91,1.91,0,0,1,.16.81V9.79H90.35V4.57H89.2a0.3,0.3,0,0,1,0,.05V9.79H86.77V4.57H85.63V9.79H83.2Z"/><path d="M100.77,7.59q0,0.35,0,.66a2.2,2.2,0,0,1-.12.58,1.38,1.38,0,0,1-.29.48,1.57,1.57,0,0,1-.53.36,3.44,3.44,0,0,1-.84.23,7.94,7.94,0,0,1-1.22.08,7.36,7.36,0,0,1-1.24-.09,3.65,3.65,0,0,1-.84-0.23,1.61,1.61,0,0,1-.52-0.34,1.3,1.3,0,0,1-.27-0.4,1.42,1.42,0,0,1-.11-0.43c0-.14,0-0.28,0-0.41V5.14c0-.13,0-0.27,0-0.41A1.38,1.38,0,0,1,94.9,4.3a1.32,1.32,0,0,1,.27-0.4,1.62,1.62,0,0,1,.52-0.34,3.65,3.65,0,0,1,.84-0.23,7.36,7.36,0,0,1,1.24-.09A7.18,7.18,0,0,1,99,3.33a3.72,3.72,0,0,1,.84.23,1.72,1.72,0,0,1,.53.34,1.45,1.45,0,0,1,.29.4,1.37,1.37,0,0,1,.12.43,3.6,3.6,0,0,1,0,.41V7H97.2V8.63h1.15v-1h2.42ZM97.2,6.1h1.15V4.58H97.2V6.1Z"/><path d="M102.77,9.79V3.45h2L105,4.26a1.57,1.57,0,0,1,.33-0.45,2,2,0,0,1,.46-0.32,2.25,2.25,0,0,1,.54-0.2,2.57,2.57,0,0,1,.59-0.07,2.12,2.12,0,0,1,.68.11,1.78,1.78,0,0,1,.6.34,1.69,1.69,0,0,1,.42.57,1.94,1.94,0,0,1,.16.81V9.79h-2.43V4.62H105.2V9.79h-2.43Z"/><path d="M113.65,9.79h-2.43V4.42h-0.6v-1h0.6V2h2.43V3.45h0.8v1h-0.8V9.79Z"/><path d="M35.76,11.45v2.5a2,2,0,0,1,.77-0.53,2.65,2.65,0,0,1,1-.18,2.08,2.08,0,0,1,.68.11,1.67,1.67,0,0,1,.59.35,1.73,1.73,0,0,1,.41.59,2.1,2.1,0,0,1,.16.85V18a2.32,2.32,0,0,1-.16.89,1.87,1.87,0,0,1-.42.63,1.69,1.69,0,0,1-.6.37,2,2,0,0,1-.69.12,2.58,2.58,0,0,1-.57-0.06,2.37,2.37,0,0,1-.53-0.19,2.05,2.05,0,0,1-.46-0.31A1.9,1.9,0,0,1,35.56,19l-0.22.82h-2V11.45h2.43Zm0,7.19h1.15v-4H35.76v4Z"/><path d="M47.34,13.45v6.35h-2L45.11,19a1.57,1.57,0,0,1-.33.45,2,2,0,0,1-.46.32,2.25,2.25,0,0,1-.54.2,2.57,2.57,0,0,1-.59.07,2.12,2.12,0,0,1-.68-0.11,1.78,1.78,0,0,1-.6-0.34A1.69,1.69,0,0,1,41.49,19a1.94,1.94,0,0,1-.16-0.81V13.45h2.43v5.19h1.15V13.45h2.43Z"/><path d="M51.84,11.45V12.6H49.42V11.45h2.43Zm0,8.35H49.42V13.45h2.43v6.35Z"/><path d="M56.32,19.79H53.9V11.45h2.43v8.35Z"/><path d="M64.33,11.45v8.35h-2L62.09,19a1.92,1.92,0,0,1-.35.43,2.08,2.08,0,0,1-.46.31,2.37,2.37,0,0,1-.53.19,2.58,2.58,0,0,1-.57.06,2,2,0,0,1-.69-0.12,1.68,1.68,0,0,1-.6-0.37,1.84,1.84,0,0,1-.42-0.63A2.3,2.3,0,0,1,58.32,18V15.13a2.1,2.1,0,0,1,.16-0.85,1.71,1.71,0,0,1,.41-0.59,1.63,1.63,0,0,1,.59-0.35,2.07,2.07,0,0,1,.68-0.11,2.64,2.64,0,0,1,1,.18,2,2,0,0,1,.77.53v-2.5h2.43ZM61.9,14.62H60.75v4H61.9v-4Z"/><path d="M72.34,17.59q0,0.35,0,.66a2.2,2.2,0,0,1-.12.58,1.38,1.38,0,0,1-.29.48,1.57,1.57,0,0,1-.53.36,3.44,3.44,0,0,1-.84.23,7.94,7.94,0,0,1-1.22.08,7.36,7.36,0,0,1-1.24-.09,3.65,3.65,0,0,1-.84-0.23,1.61,1.61,0,0,1-.52-0.34,1.3,1.3,0,0,1-.27-0.4,1.42,1.42,0,0,1-.11-0.43c0-.14,0-0.28,0-0.41V15.14c0-.13,0-0.27,0-0.41a1.38,1.38,0,0,1,.11-0.42,1.32,1.32,0,0,1,.27-0.4,1.62,1.62,0,0,1,.52-0.34,3.65,3.65,0,0,1,.84-0.23,7.36,7.36,0,0,1,1.24-.09,7.18,7.18,0,0,1,1.22.09,3.72,3.72,0,0,1,.84.23,1.72,1.72,0,0,1,.53.34,1.45,1.45,0,0,1,.29.4,1.37,1.37,0,0,1,.12.43,3.6,3.6,0,0,1,0,.41V17H68.77v1.67h1.15v-1h2.42ZM68.77,16.1h1.15V14.58H68.77V16.1Z"/><path d="M74.34,19.79V13.45h2l0.27,1A1.48,1.48,0,0,1,76.72,14,1.41,1.41,0,0,1,77,13.7a1.33,1.33,0,0,1,.29-0.22,1.68,1.68,0,0,1,.31-0.14l0.3-.07,0.26,0v1.92l-1.36.39v4.24H74.34Z"/><path d="M36.83,29.39a1.74,1.74,0,0,1-.35.31,2.2,2.2,0,0,1-.42.23,2.58,2.58,0,0,1-.48.14,2.69,2.69,0,0,1-.5,0A2,2,0,0,1,34.4,30a1.63,1.63,0,0,1-.59-0.35,1.74,1.74,0,0,1-.41-0.6,2.17,2.17,0,0,1-.16-0.86V25.32a2.36,2.36,0,0,1,.16-0.91,1.88,1.88,0,0,1,.42-0.64,1.68,1.68,0,0,1,.6-0.38,2,2,0,0,1,.69-0.12,2.48,2.48,0,0,1,.56.06,2.36,2.36,0,0,1,.53.19,2,2,0,0,1,.46.32,1.89,1.89,0,0,1,.36.44l0.22-.83h2v6.06a4,4,0,0,1-.12,1,3.16,3.16,0,0,1-.33.81,2.44,2.44,0,0,1-.5.6,2.68,2.68,0,0,1-.62.41,2.93,2.93,0,0,1-.7.23,3.73,3.73,0,0,1-.73.07,3.88,3.88,0,0,1-.65-0.05A3.69,3.69,0,0,1,35,32.45a3,3,0,0,1-.53-0.25A2.14,2.14,0,0,1,34,31.88a1.43,1.43,0,0,1-.28-0.39,1,1,0,0,1-.1-0.44,1.17,1.17,0,0,1,0-.23c0-.06,0-0.14.06-0.24l2.46,0.07v0.68h0.63V29.39Zm0-4.76H35.68v4.08h1.15V24.64Z"/><path d="M41.33,29.79V23.45h2l0.27,1A1.48,1.48,0,0,1,43.72,24,1.41,1.41,0,0,1,44,23.7a1.33,1.33,0,0,1,.29-0.22,1.68,1.68,0,0,1,.31-0.14l0.3-.07,0.26,0v1.92l-1.36.39v4.24H41.33Z"/><path d="M50,30a7.46,7.46,0,0,1-1.24-.09,3.74,3.74,0,0,1-.85-0.23,1.63,1.63,0,0,1-.53-0.34,1.41,1.41,0,0,1-.28-0.41A1.38,1.38,0,0,1,47,28.49a3.83,3.83,0,0,1,0-.41V25.15a3.83,3.83,0,0,1,0-.41,1.4,1.4,0,0,1,.11-0.43,1.36,1.36,0,0,1,.28-0.41,1.66,1.66,0,0,1,.53-0.34,3.74,3.74,0,0,1,.85-0.23A7.46,7.46,0,0,1,50,23.24a7.32,7.32,0,0,1,1.23.09,3.61,3.61,0,0,1,.84.23,1.59,1.59,0,0,1,.51.34,1.31,1.31,0,0,1,.27.41,1.41,1.41,0,0,1,.11.43c0,0.14,0,.28,0,0.41v2.93c0,0.13,0,.27,0,0.41a1.39,1.39,0,0,1-.11.43,1.35,1.35,0,0,1-.27.41,1.56,1.56,0,0,1-.51.34,3.61,3.61,0,0,1-.84.23A7.32,7.32,0,0,1,50,30ZM49.4,28.65h1.15V24.58H49.4v4.07Z"/><path d="M61,23.45v6.35H59L58.77,29a1.57,1.57,0,0,1-.33.45,2,2,0,0,1-.46.32,2.25,2.25,0,0,1-.54.2,2.57,2.57,0,0,1-.59.07,2.12,2.12,0,0,1-.68-0.11,1.78,1.78,0,0,1-.6-0.34A1.69,1.69,0,0,1,55.15,29,1.94,1.94,0,0,1,55,28.17V23.45h2.43v5.19h1.15V23.45H61Z"/><path d="M63.07,31.79V23.45h2l0.22,0.82a1.88,1.88,0,0,1,.36-0.43,2.12,2.12,0,0,1,.46-0.31,2.37,2.37,0,0,1,.53-0.19,2.58,2.58,0,0,1,.56-0.06,2,2,0,0,1,.69.12,1.69,1.69,0,0,1,.6.37,1.87,1.87,0,0,1,.42.63,2.32,2.32,0,0,1,.16.89v2.82a2.1,2.1,0,0,1-.16.85,1.73,1.73,0,0,1-.41.59,1.67,1.67,0,0,1-.59.35,2.08,2.08,0,0,1-.68.11,2.69,2.69,0,0,1-.5,0,2.46,2.46,0,0,1-.47-0.14,2.26,2.26,0,0,1-.43-0.22,1.79,1.79,0,0,1-.35-0.3v2.49H63.07Zm2.43-3.14h1.15v-4H65.5v4Z"/></svg>