<svg id="fondo_negro" data-name="fondo negro" xmlns="http://www.w3.org/2000/svg" viewBox="0 0 147.38 55.5"><defs><style>.cls-1,.cls-2,.cls-3{fill:#fff;}.cls-2{stroke:#00ad45;stroke-width:2px;}.cls-2,.cls-3{stroke-miterlimit:10;}.cls-3{stroke:#a0a8a0;}</style></defs><title>logo_menu_mediano</title><rect width="30" height="55.5"/><path class="cls-1" d="M35.45,50.5V43.21h1.48V50.5H35.45Z"/><path class="cls-1" d="M38.26,50.5V43.21h1L40.92,47v-3.8h1.22V50.5h-1l-1.62-4v4H38.26Z"/><path class="cls-1" d="M45.34,50.6a2,2,0,0,1-1.17-.31,1.68,1.68,0,0,1-.62-0.88,4.32,4.32,0,0,1-.18-1.33V45.65a4.29,4.29,0,0,1,.19-1.35,1.61,1.61,0,0,1,.66-0.87,2.34,2.34,0,0,1,1.28-.31,2.49,2.49,0,0,1,1.24.26,1.49,1.49,0,0,1,.65.74,3,3,0,0,1,.2,1.13v0.42H46.14V45.16a3.14,3.14,0,0,0,0-.51,0.6,0.6,0,0,0-.17-0.35,0.59,0.59,0,0,0-.42-0.13,0.55,0.55,0,0,0-.43.15,0.74,0.74,0,0,0-.17.39,3.35,3.35,0,0,0,0,.51v3.23a2.53,2.53,0,0,0,.05.55,0.7,0.7,0,0,0,.2.38,0.73,0.73,0,0,0,.86,0A0.76,0.76,0,0,0,46.21,49a2.45,2.45,0,0,0,.06-0.56V47.65H45.55v-0.9H47.6V50.5h-1l-0.09-.66a1.33,1.33,0,0,1-.43.55A1.25,1.25,0,0,1,45.34,50.6Z"/><path class="cls-1" d="M48.85,50.5V43.21H52v1H50.33v1.93h1.3v1h-1.3v2.29H52v1h-3.2Z"/><path class="cls-1" d="M53,50.5V43.21h1L55.67,47v-3.8h1.22V50.5h-1l-1.62-4v4H53Z"/><path class="cls-1" d="M58.24,50.5V43.21h1.48V50.5H58.24Z"/><path class="cls-1" d="M61.06,50.5V43.21h3.18v1H62.54v1.93h1.3v1h-1.3v2.29h1.71v1h-3.2Z"/><path class="cls-1" d="M65.23,50.5V43.21h1.89a4.21,4.21,0,0,1,1.26.17,1.47,1.47,0,0,1,.81.59,2.09,2.09,0,0,1,.28,1.17,3.73,3.73,0,0,1-.08.8,1.54,1.54,0,0,1-.27.6,1.34,1.34,0,0,1-.54.41l1,3.55H68.07l-0.84-3.3H66.71v3.3H65.23Zm1.49-4.18h0.43a1.16,1.16,0,0,0,.57-0.12A0.64,0.64,0,0,0,68,45.84a1.75,1.75,0,0,0,.09-0.59,1.34,1.34,0,0,0-.18-0.77,0.78,0.78,0,0,0-.69-0.27h-0.5v2.1Z"/><path class="cls-1" d="M70.69,50.5V43.21h1.48V50.5H70.69ZM71,42.66l0.56-1.8h1.38l-1.11,1.8H71Z"/><path class="cls-1" d="M73.15,50.5l1.41-7.29h1.65l1.4,7.29H76.23L76,48.89H74.82l-0.28,1.6H73.15ZM75,48h0.87L75.39,45Z"/><path class="cls-1" d="M81.95,50.5V47.61l-1.42-4.4h1.39l0.78,2.57,0.73-2.57h1.35l-1.4,4.4V50.5H81.95Z"/><path class="cls-1" d="M90.08,50.59a2.34,2.34,0,0,1-1.28-.31,1.62,1.62,0,0,1-.66-0.85,3.86,3.86,0,0,1-.19-1.26V45.55a4,4,0,0,1,.19-1.3,1.57,1.57,0,0,1,.66-0.84,2.4,2.4,0,0,1,1.28-.3,2.44,2.44,0,0,1,1.23.26,1.43,1.43,0,0,1,.63.74,3.05,3.05,0,0,1,.18,1.11v0.61H90.68V45.15a4,4,0,0,0,0-.47,0.67,0.67,0,0,0-.15-0.36,0.53,0.53,0,0,0-.42-0.14,0.57,0.57,0,0,0-.43.14,0.68,0.68,0,0,0-.17.37,3.25,3.25,0,0,0,0,.51v3.31a2.63,2.63,0,0,0,0,.54,0.62,0.62,0,0,0,.19.35,0.59,0.59,0,0,0,.4.12,0.52,0.52,0,0,0,.41-0.14A0.7,0.7,0,0,0,90.65,49a3.78,3.78,0,0,0,0-.5V47.8h1.44v0.6a3.26,3.26,0,0,1-.18,1.13,1.51,1.51,0,0,1-.62.77A2.29,2.29,0,0,1,90.08,50.59Z"/><path class="cls-1" d="M95.29,50.59A2.4,2.4,0,0,1,94,50.31a1.59,1.59,0,0,1-.67-0.82,3.63,3.63,0,0,1-.2-1.28V45.48a3.6,3.6,0,0,1,.2-1.28A1.56,1.56,0,0,1,94,43.4a2.46,2.46,0,0,1,1.27-.28,2.49,2.49,0,0,1,1.28.28,1.57,1.57,0,0,1,.67.81,3.54,3.54,0,0,1,.2,1.27V48.2a3.61,3.61,0,0,1-.2,1.28,1.59,1.59,0,0,1-.67.82A2.45,2.45,0,0,1,95.29,50.59Zm0-1.07a0.59,0.59,0,0,0,.42-0.13A0.65,0.65,0,0,0,95.89,49a2.34,2.34,0,0,0,0-.47V45.12a2.27,2.27,0,0,0,0-.47,0.65,0.65,0,0,0-.18-0.35,0.59,0.59,0,0,0-.42-0.13,0.56,0.56,0,0,0-.41.13,0.65,0.65,0,0,0-.18.35,2.27,2.27,0,0,0,0,.47v3.45a2.68,2.68,0,0,0,0,.47,0.64,0.64,0,0,0,.18.35A0.58,0.58,0,0,0,95.29,49.52Z"/><path class="cls-1" d="M98.66,50.5V43.21h1l1.62,3.8v-3.8h1.22V50.5h-1l-1.62-4v4H98.66Z"/><path class="cls-1" d="M105.76,50.59a2.31,2.31,0,0,1-1.12-.25A1.57,1.57,0,0,1,104,49.6a3.44,3.44,0,0,1-.27-1.27l1.28-.22a3.71,3.71,0,0,0,.09.75,0.91,0.91,0,0,0,.23.45,0.55,0.55,0,0,0,.39.15,0.41,0.41,0,0,0,.39-0.18,0.82,0.82,0,0,0,.1-0.41A1.3,1.3,0,0,0,106,48.1a3.72,3.72,0,0,0-.58-0.63l-0.76-.66A3.06,3.06,0,0,1,104,46a2,2,0,0,1-.26-1.06,1.78,1.78,0,0,1,.53-1.38,2.06,2.06,0,0,1,1.45-.48,2,2,0,0,1,.9.18,1.37,1.37,0,0,1,.54.48,2,2,0,0,1,.27.66,4.44,4.44,0,0,1,.09.71l-1.27.19q0-.33-0.06-0.58a0.81,0.81,0,0,0-.16-0.4,0.45,0.45,0,0,0-.36-0.14,0.43,0.43,0,0,0-.39.19,0.77,0.77,0,0,0-.13.43,1.07,1.07,0,0,0,.18.63,3.14,3.14,0,0,0,.48.52l0.74,0.65a4.21,4.21,0,0,1,.79.9,2.27,2.27,0,0,1,.33,1.26,1.85,1.85,0,0,1-.23.93,1.68,1.68,0,0,1-.65.65A2,2,0,0,1,105.76,50.59Z"/><path class="cls-1" d="M109.33,50.5V44.31H108.2V43.21h3.73v1.11h-1.11V50.5h-1.49Z"/><path class="cls-1" d="M112.81,50.5V43.21h1.89a4.21,4.21,0,0,1,1.26.17,1.47,1.47,0,0,1,.81.59,2.09,2.09,0,0,1,.28,1.17,3.73,3.73,0,0,1-.08.8,1.54,1.54,0,0,1-.27.6,1.34,1.34,0,0,1-.54.41l1,3.55h-1.52l-0.84-3.3h-0.52v3.3h-1.49Zm1.49-4.18h0.43a1.16,1.16,0,0,0,.57-0.12,0.64,0.64,0,0,0,.29-0.36,1.75,1.75,0,0,0,.09-0.59,1.34,1.34,0,0,0-.18-0.77,0.78,0.78,0,0,0-.69-0.27h-0.5v2.1Z"/><path class="cls-1" d="M120.3,50.59a2.44,2.44,0,0,1-1.29-.28,1.5,1.5,0,0,1-.64-0.82,4,4,0,0,1-.18-1.3v-5h1.47V48.4a3.53,3.53,0,0,0,0,.53,0.83,0.83,0,0,0,.18.42,0.53,0.53,0,0,0,.43.16,0.55,0.55,0,0,0,.44-0.16,0.8,0.8,0,0,0,.18-0.42,3.81,3.81,0,0,0,0-.53V43.21h1.47v5a4,4,0,0,1-.18,1.3,1.5,1.5,0,0,1-.64.82A2.45,2.45,0,0,1,120.3,50.59Z"/><path class="cls-1" d="M125.7,50.59a2.34,2.34,0,0,1-1.28-.31,1.62,1.62,0,0,1-.66-0.85,3.86,3.86,0,0,1-.19-1.26V45.55a4,4,0,0,1,.19-1.3,1.57,1.57,0,0,1,.66-0.84,2.4,2.4,0,0,1,1.28-.3,2.44,2.44,0,0,1,1.23.26,1.43,1.43,0,0,1,.63.74,3.05,3.05,0,0,1,.18,1.11v0.61H126.3V45.15a4,4,0,0,0,0-.47,0.67,0.67,0,0,0-.15-0.36,0.53,0.53,0,0,0-.42-0.14,0.57,0.57,0,0,0-.43.14,0.68,0.68,0,0,0-.17.37,3.25,3.25,0,0,0,0,.51v3.31a2.63,2.63,0,0,0,0,.54,0.62,0.62,0,0,0,.19.35,0.59,0.59,0,0,0,.4.12,0.52,0.52,0,0,0,.41-0.14,0.7,0.7,0,0,0,.15-0.37,3.78,3.78,0,0,0,0-.5V47.8h1.44v0.6a3.26,3.26,0,0,1-.18,1.13,1.51,1.51,0,0,1-.62.77A2.29,2.29,0,0,1,125.7,50.59Z"/><path class="cls-1" d="M130.9,50.59a2.34,2.34,0,0,1-1.28-.31,1.62,1.62,0,0,1-.66-0.85,3.86,3.86,0,0,1-.19-1.26V45.55a4,4,0,0,1,.19-1.3,1.57,1.57,0,0,1,.66-0.84,2.4,2.4,0,0,1,1.28-.3,2.44,2.44,0,0,1,1.23.26,1.43,1.43,0,0,1,.63.74,3.05,3.05,0,0,1,.18,1.11v0.61H131.5V45.15a4,4,0,0,0,0-.47,0.67,0.67,0,0,0-.15-0.36,0.53,0.53,0,0,0-.42-0.14,0.57,0.57,0,0,0-.43.14,0.68,0.68,0,0,0-.17.37,3.25,3.25,0,0,0,0,.51v3.31a2.63,2.63,0,0,0,0,.54,0.62,0.62,0,0,0,.19.35,0.59,0.59,0,0,0,.4.12,0.52,0.52,0,0,0,.41-0.14,0.7,0.7,0,0,0,.15-0.37,3.78,3.78,0,0,0,0-.5V47.8h1.44v0.6a3.26,3.26,0,0,1-.18,1.13,1.51,1.51,0,0,1-.62.77A2.29,2.29,0,0,1,130.9,50.59Z"/><path class="cls-1" d="M134.09,50.5V43.21h1.48V50.5h-1.48Z"/><path class="cls-1" d="M138.94,50.59a2.4,2.4,0,0,1-1.27-.29,1.59,1.59,0,0,1-.67-0.82,3.63,3.63,0,0,1-.2-1.28V45.48a3.6,3.6,0,0,1,.2-1.28,1.56,1.56,0,0,1,.67-0.81,2.46,2.46,0,0,1,1.27-.28,2.49,2.49,0,0,1,1.28.28,1.57,1.57,0,0,1,.67.81,3.54,3.54,0,0,1,.2,1.27V48.2a3.61,3.61,0,0,1-.2,1.28,1.59,1.59,0,0,1-.67.82A2.45,2.45,0,0,1,138.94,50.59Zm0-1.07a0.59,0.59,0,0,0,.42-0.13,0.65,0.65,0,0,0,.18-0.35,2.34,2.34,0,0,0,0-.47V45.12a2.27,2.27,0,0,0,0-.47,0.65,0.65,0,0,0-.18-0.35,0.59,0.59,0,0,0-.42-0.13,0.56,0.56,0,0,0-.41.13,0.65,0.65,0,0,0-.18.35,2.27,2.27,0,0,0,0,.47v3.45a2.68,2.68,0,0,0,0,.47,0.64,0.64,0,0,0,.18.35A0.58,0.58,0,0,0,138.94,49.52Zm-0.42-6.87,0.56-1.8h1.38l-1.11,1.8h-0.83Z"/><path class="cls-1" d="M142.32,50.5V43.21h1L145,47v-3.8h1.22V50.5h-1l-1.62-4v4h-1.27Z"/><path class="cls-2" d="M26.73,33.42H4V4.72H26.73v5.74H11.36V16H23.45v5.74H11.36v5.94H26.73v5.74Z"/><path class="cls-3" d="M4.89,40.75h6a3,3,0,0,1,2.16.67,2.71,2.71,0,0,1,.69,2,2.52,2.52,0,0,1-.39,1.46,2.11,2.11,0,0,1-1,.79A2.32,2.32,0,0,1,14,47.32a3.54,3.54,0,0,1,.15,1.08,3,3,0,0,1-.69,2.16,3,3,0,0,1-2.16.69H4.89V40.75Zm6.15,3a0.8,0.8,0,0,0-.9-0.9H7.59V45h2.55A0.8,0.8,0,0,0,11,44v-0.3ZM11.49,48a0.8,0.8,0,0,0-.9-0.9h-3v2.1h3a0.8,0.8,0,0,0,.9-0.9V48Z"/><path class="cls-3" d="M26.67,51a61.09,61.09,0,0,1-6.45.38,3,3,0,0,1-2.16-.69,3,3,0,0,1-.69-2.16v-4.8a3.14,3.14,0,0,1,.71-2.29,3.14,3.14,0,0,1,2.29-.71h5.4v2.1H21a0.8,0.8,0,0,0-.9.9v4.8a0.7,0.7,0,0,0,.75.75q1.73,0,3.15-.07V47H22v-1.8h4.65V51Z"/><path class="cls-1" d="M42.44,9.4q0,0.42,0,.79a2.67,2.67,0,0,1-.14.69,1.67,1.67,0,0,1-.35.57,1.89,1.89,0,0,1-.63.43,4.08,4.08,0,0,1-1,.28,9.39,9.39,0,0,1-1.46.1,8.85,8.85,0,0,1-1.49-.11,4.38,4.38,0,0,1-1-.28,1.94,1.94,0,0,1-.62-0.41A1.57,1.57,0,0,1,35.38,11a1.68,1.68,0,0,1-.13-0.51q0-.26,0-0.49V6.46q0-.23,0-0.49a1.65,1.65,0,0,1,.13-0.51A1.58,1.58,0,0,1,35.71,5a1.94,1.94,0,0,1,.62-0.41,4.38,4.38,0,0,1,1-.28,8.85,8.85,0,0,1,1.49-.11,8.63,8.63,0,0,1,1.46.11,4.44,4.44,0,0,1,1,.28,2,2,0,0,1,.63.41,1.71,1.71,0,0,1,.35.48,1.65,1.65,0,0,1,.15.51,4.4,4.4,0,0,1,0,.49v2.2H38.15v2h1.38V9.41h2.91ZM38.15,7.61h1.38V5.78H38.15V7.61Z"/><path class="cls-1" d="M44.72,12V4.43h2.41l0.27,1a1.89,1.89,0,0,1,.4-0.54,2.37,2.37,0,0,1,.55-0.39A2.8,2.8,0,0,1,49,4.25a3.14,3.14,0,0,1,.7-0.08,2.55,2.55,0,0,1,.82.13,2.09,2.09,0,0,1,.71.41,2,2,0,0,1,.5.69,2.32,2.32,0,0,1,.19,1V12H49V5.83H47.63V12H44.72Z"/><path class="cls-1" d="M53.82,4.43h3l0.58,5.16L58,4.43h3L59.22,12H55.65Z"/><path class="cls-1" d="M66.27,2V3.41H63.36V2h2.91Zm0,10H63.36V4.43h2.91V12Z"/><path class="cls-1" d="M68.62,12V4.43H71l0.33,1.2a1.78,1.78,0,0,1,.18-0.52,1.7,1.7,0,0,1,.28-0.38,1.61,1.61,0,0,1,.35-0.27,2.1,2.1,0,0,1,.38-0.17,2.23,2.23,0,0,1,.36-0.09l0.31,0V6.48L71.53,7V12H68.62Z"/><path class="cls-1" d="M78.92,12.27a9,9,0,0,1-1.49-.11,4.5,4.5,0,0,1-1-.28,1.93,1.93,0,0,1-.63-0.41,1.64,1.64,0,0,1-.47-1,4.93,4.93,0,0,1,0-.5V6.47a4.93,4.93,0,0,1,0-.5,1.71,1.71,0,0,1,.14-0.52A1.64,1.64,0,0,1,75.78,5a2,2,0,0,1,.63-0.41,4.5,4.5,0,0,1,1-.28,9,9,0,0,1,1.49-.11,8.81,8.81,0,0,1,1.48.11,4.32,4.32,0,0,1,1,.28A1.9,1.9,0,0,1,82,5a1.6,1.6,0,0,1,.33.49,1.69,1.69,0,0,1,.13.52q0,0.26,0,.5V10q0,0.23,0,.5a1.61,1.61,0,0,1-.45,1,1.88,1.88,0,0,1-.62.41,4.32,4.32,0,0,1-1,.28A8.81,8.81,0,0,1,78.92,12.27Zm-0.73-1.61h1.38V5.78H78.19v4.89Z"/><path class="cls-1" d="M84.79,12V4.43H87.2l0.27,1a1.89,1.89,0,0,1,.4-0.54,2.37,2.37,0,0,1,.55-0.39,2.8,2.8,0,0,1,.65-0.23,3.14,3.14,0,0,1,.7-0.08,2.55,2.55,0,0,1,.82.13,2.09,2.09,0,0,1,.71.41,2,2,0,0,1,.5.69,2.32,2.32,0,0,1,.19,1V12H89.09V5.83H87.7V12H84.79Z"/><path class="cls-1" d="M94.36,12V4.43h2.39L97,5.37a1.82,1.82,0,0,1,.4-0.52A2.45,2.45,0,0,1,98,4.47a3,3,0,0,1,.66-0.23,3.22,3.22,0,0,1,.69-0.08,2.65,2.65,0,0,1,.59.07,2.22,2.22,0,0,1,.55.2,2.13,2.13,0,0,1,.47.33,1.86,1.86,0,0,1,.36.46,1.85,1.85,0,0,1,.42-0.46,2.56,2.56,0,0,1,.56-0.33,3.09,3.09,0,0,1,.64-0.2,3.39,3.39,0,0,1,.68-0.07,2.61,2.61,0,0,1,.83.13,2.11,2.11,0,0,1,.72.41,2,2,0,0,1,.51.69,2.28,2.28,0,0,1,.19,1V12h-2.91V5.78h-1.38a0.32,0.32,0,0,1,0,.06V12H98.65V5.78H97.27V12H94.36Z"/><path class="cls-1" d="M115.33,9.4q0,0.42,0,.79a2.67,2.67,0,0,1-.14.69,1.67,1.67,0,0,1-.35.57,1.89,1.89,0,0,1-.63.43,4.08,4.08,0,0,1-1,.28,9.39,9.39,0,0,1-1.46.1,8.85,8.85,0,0,1-1.49-.11,4.38,4.38,0,0,1-1-.28,1.94,1.94,0,0,1-.62-0.41,1.57,1.57,0,0,1-.33-0.49,1.68,1.68,0,0,1-.13-0.51q0-.26,0-0.49V6.46q0-.23,0-0.49a1.65,1.65,0,0,1,.13-0.51A1.58,1.58,0,0,1,108.61,5a1.94,1.94,0,0,1,.62-0.41,4.38,4.38,0,0,1,1-.28,8.85,8.85,0,0,1,1.49-.11,8.63,8.63,0,0,1,1.46.11,4.44,4.44,0,0,1,1,.28,2,2,0,0,1,.63.41,1.71,1.71,0,0,1,.35.48,1.65,1.65,0,0,1,.15.51,4.4,4.4,0,0,1,0,.49v2.2H111v2h1.38V9.41h2.91ZM111,7.61h1.38V5.78H111V7.61Z"/><path class="cls-1" d="M117.61,12V4.43H120l0.27,1a1.89,1.89,0,0,1,.4-0.54,2.37,2.37,0,0,1,.55-0.39,2.8,2.8,0,0,1,.65-0.23,3.14,3.14,0,0,1,.7-0.08,2.55,2.55,0,0,1,.82.13,2.09,2.09,0,0,1,.71.41,2,2,0,0,1,.5.69,2.32,2.32,0,0,1,.19,1V12h-2.91V5.83h-1.38V12h-2.91Z"/><path class="cls-1" d="M130.56,12h-2.91V5.6h-0.72V4.43h0.72V2.7h2.91V4.43h1V5.6h-1V12Z"/><path class="cls-1" d="M38.26,14v3a2.42,2.42,0,0,1,.92-0.63,3.16,3.16,0,0,1,1.17-.22,2.5,2.5,0,0,1,.81.13,2,2,0,0,1,.7.42,2.07,2.07,0,0,1,.5.71,2.53,2.53,0,0,1,.19,1v3.39a2.77,2.77,0,0,1-.19,1.07,2.22,2.22,0,0,1-.5.76,2,2,0,0,1-.72.45,2.41,2.41,0,0,1-.83.15,3.07,3.07,0,0,1-.69-0.08A2.8,2.8,0,0,1,39,24a2.43,2.43,0,0,1-.55-0.37A2.27,2.27,0,0,1,38,23.07l-0.27,1H35.35V14h2.91Zm0,8.63h1.38V17.83H38.26v4.82Z"/><path class="cls-1" d="M52,16.43V24H49.63l-0.27-1a1.89,1.89,0,0,1-.4.54,2.37,2.37,0,0,1-.55.39,2.8,2.8,0,0,1-.65.23,3.14,3.14,0,0,1-.7.08,2.55,2.55,0,0,1-.82-0.13,2.09,2.09,0,0,1-.71-0.41,2,2,0,0,1-.5-0.69,2.32,2.32,0,0,1-.19-1V16.43h2.91v6.23h1.38V16.43H52Z"/><path class="cls-1" d="M57.32,14v1.39H54.41V14h2.91Zm0,10H54.41V16.43h2.91V24Z"/><path class="cls-1" d="M62.58,24H59.67V14h2.91V24Z"/><path class="cls-1" d="M72.06,14V24H69.66l-0.27-1a2.27,2.27,0,0,1-.42.52,2.43,2.43,0,0,1-.55.38,2.8,2.8,0,0,1-.63.23,3.07,3.07,0,0,1-.69.08,2.41,2.41,0,0,1-.83-0.15,2,2,0,0,1-.72-0.45,2.22,2.22,0,0,1-.5-0.76,2.77,2.77,0,0,1-.19-1.07V18.45a2.53,2.53,0,0,1,.19-1,2.07,2.07,0,0,1,.5-0.71,2,2,0,0,1,.7-0.42,2.5,2.5,0,0,1,.81-0.13,3.16,3.16,0,0,1,1.17.22,2.42,2.42,0,0,1,.92.63V14h2.91Zm-2.91,3.81H67.77v4.82h1.38V17.83Z"/><path class="cls-1" d="M81.57,21.4q0,0.42,0,.79a2.67,2.67,0,0,1-.14.69,1.67,1.67,0,0,1-.35.57,1.89,1.89,0,0,1-.63.43,4.08,4.08,0,0,1-1,.28,9.39,9.39,0,0,1-1.46.1,8.85,8.85,0,0,1-1.49-.11,4.38,4.38,0,0,1-1-.28,1.94,1.94,0,0,1-.62-0.41A1.57,1.57,0,0,1,74.51,23a1.68,1.68,0,0,1-.13-0.51q0-.26,0-0.49V18.46q0-.23,0-0.49a1.65,1.65,0,0,1,.13-0.51A1.58,1.58,0,0,1,74.84,17a1.94,1.94,0,0,1,.62-0.41,4.38,4.38,0,0,1,1-.28A8.85,8.85,0,0,1,78,16.18a8.63,8.63,0,0,1,1.46.11,4.44,4.44,0,0,1,1,.28A2,2,0,0,1,81,17a1.71,1.71,0,0,1,.35.48,1.65,1.65,0,0,1,.15.51,4.4,4.4,0,0,1,0,.49v2.2H77.28v2h1.38V21.41h2.91Zm-4.29-1.79h1.38V17.78H77.28v1.83Z"/><path class="cls-1" d="M83.85,24V16.43H86.2l0.33,1.2a1.78,1.78,0,0,1,.18-0.52A1.7,1.7,0,0,1,87,16.73a1.61,1.61,0,0,1,.35-0.27,2.1,2.1,0,0,1,.38-0.17,2.23,2.23,0,0,1,.36-0.09l0.31,0v2.31L86.76,19V24H83.85Z"/><path class="cls-1" d="M39.54,35.56a2.17,2.17,0,0,1-.42.37,2.7,2.7,0,0,1-.51.27,3,3,0,0,1-.57.17,3.18,3.18,0,0,1-.6.06,2.48,2.48,0,0,1-.81-0.14,2,2,0,0,1-.7-0.42,2.09,2.09,0,0,1-.5-0.72,2.6,2.6,0,0,1-.19-1V30.67a2.86,2.86,0,0,1,.19-1.09,2.27,2.27,0,0,1,.5-0.77,2,2,0,0,1,.72-0.46,2.39,2.39,0,0,1,.83-0.15,3,3,0,0,1,.67.08,2.87,2.87,0,0,1,.64.23,2.46,2.46,0,0,1,.55.38,2.25,2.25,0,0,1,.43.53l0.27-1h2.41v7.28a4.78,4.78,0,0,1-.15,1.23,3.79,3.79,0,0,1-.4,1,3,3,0,0,1-.59.72,3.27,3.27,0,0,1-.74.49,3.55,3.55,0,0,1-.84.28,4.47,4.47,0,0,1-.88.09,4.61,4.61,0,0,1-.78-0.07,4.47,4.47,0,0,1-.73-0.19,3.58,3.58,0,0,1-.64-0.3,2.62,2.62,0,0,1-.51-0.39,1.67,1.67,0,0,1-.34-0.47,1.21,1.21,0,0,1-.12-0.53,1.39,1.39,0,0,1,0-.28c0-.07,0-0.17.08-0.29l2.95,0.08v0.82h0.76V35.56Zm0-5.71H38.16v4.9h1.38v-4.9Z"/><path class="cls-1" d="M44.83,36V28.43h2.35l0.33,1.2a1.78,1.78,0,0,1,.18-0.52A1.7,1.7,0,0,1,48,28.73a1.61,1.61,0,0,1,.35-0.27,2.1,2.1,0,0,1,.38-0.17,2.23,2.23,0,0,1,.36-0.09l0.31,0v2.31L47.74,31V36H44.83Z"/><path class="cls-1" d="M55.13,36.27a9,9,0,0,1-1.49-.11,4.5,4.5,0,0,1-1-.28A1.93,1.93,0,0,1,52,35.48a1.64,1.64,0,0,1-.47-1,4.93,4.93,0,0,1,0-.5V30.47a4.93,4.93,0,0,1,0-.5,1.71,1.71,0,0,1,.14-0.52A1.64,1.64,0,0,1,52,29a2,2,0,0,1,.63-0.41,4.5,4.5,0,0,1,1-.28,9,9,0,0,1,1.49-.11,8.81,8.81,0,0,1,1.48.11,4.32,4.32,0,0,1,1,.28,1.9,1.9,0,0,1,.62.41,1.6,1.6,0,0,1,.33.49,1.69,1.69,0,0,1,.13.52q0,0.26,0,.5V34q0,0.23,0,.5a1.61,1.61,0,0,1-.45,1,1.88,1.88,0,0,1-.62.41,4.32,4.32,0,0,1-1,.28A8.81,8.81,0,0,1,55.13,36.27ZM54.4,34.67h1.38V29.78H54.4v4.89Z"/><path class="cls-1" d="M68.2,28.43V36H65.79l-0.27-1a1.89,1.89,0,0,1-.4.54,2.37,2.37,0,0,1-.55.39,2.8,2.8,0,0,1-.65.23,3.14,3.14,0,0,1-.7.08,2.55,2.55,0,0,1-.82-0.13,2.09,2.09,0,0,1-.71-0.41,2,2,0,0,1-.5-0.69,2.32,2.32,0,0,1-.19-1V28.43H63.9v6.23h1.38V28.43H68.2Z"/><path class="cls-1" d="M70.57,38.44v-10H73l0.27,1a2.24,2.24,0,0,1,.43-0.52,2.5,2.5,0,0,1,.55-0.37,2.79,2.79,0,0,1,.64-0.23,3.06,3.06,0,0,1,.68-0.08,2.41,2.41,0,0,1,.83.15,2,2,0,0,1,.72.45,2.22,2.22,0,0,1,.5.76,2.77,2.77,0,0,1,.19,1.07V34a2.53,2.53,0,0,1-.19,1,2.07,2.07,0,0,1-.5.71,2,2,0,0,1-.7.42,2.5,2.5,0,0,1-.81.13,3.24,3.24,0,0,1-.6-0.06,3.07,3.07,0,0,1-.57-0.16,2.75,2.75,0,0,1-.51-0.27,2.15,2.15,0,0,1-.42-0.36v3H70.57Zm2.91-3.77h1.38V29.83H73.48v4.83Z"/></svg>