<svg id="Capa_1" data-name="Capa 1" xmlns="http://www.w3.org/2000/svg" viewBox="0 0 346.5 156.5"><defs><style>.cls-1{fill:#777;}.cls-2{fill:#00ad45;}.cls-3{fill:#00a5ed;}</style></defs><title>engie</title><path class="cls-1" d="M342,60.37a429,429,0,0,0-83.65-21c-9-1.33-58.87-6.45-67.7-5.49H158.32c-8.82-1-47.69,2.95-58.3,4.31A459,459,0,0,0,7,60.37L7.06,59.2C18.46,48,32,41.27,45.47,34.61,89,15,105.77,10.2,137.87,7.11c3.73-.36,5-1,11.17-1.41a384.94,384.94,0,0,0,50.92,0C250,10,297.05,26.15,340.27,56.76a9.08,9.08,0,0,1,1.65,2.44Z"/><path class="cls-1" d="M192.53,150.2a40.6,40.6,0,0,1-18.66-6.93c-17.07-11.58-18.29-37.36-2.29-50.81C184,82,198.3,79.9,213,82c5.49,0.78,11.36.93,16.55,4.85,1.5,2,1.58,4.37.13,7.07a8,8,0,0,1-2.48.87c-9.44.16-18.87-1.32-28.33-.18a26.15,26.15,0,0,0-17.68,9.31c-5.95,7.07-6,18.34.17,24.91,11.95,12.73,30.6,12.43,42.87,2.49a9.79,9.79,0,0,0,3.36-6.43c-1.54-3.92-4.54-3.31-7.32-3.39-6.29-.19-12.59-0.19-18.81-1.69-3.6-.87-5.92-2.48-4.68-7.88,2.24-4.09,6.07-1.59,12.42-2.26a148.2,148.2,0,0,1,23.57-.84c8.39,0.45,10.83,4.89,9.47,14.62-1.56,11.12-7.79,17.56-15.61,22.2-4.13,2.45-8.62,4.35-13.41,4.56A56.19,56.19,0,0,0,192.53,150.2Z"/><path class="cls-1" d="M73.47,119.33c-16.22,0-25.07-.18-37.52.13-2.12.05-3.22-2-3.83-4.36,0.31-3.46,2.13-5,5-5.27,5.32-.5,10.65-0.93,16-1.59,3-.37,6.52,1,8.43-3.37,0.21-3-1.55-4.71-3.35-6.15-7.78-6.25-24.61-5.56-32.29,1.2-10.76,9.47-9.94,25.18,2.07,32.57,8.8,5.41,18.44,6.88,28.32,5.81,4.38-.48,8.75-1.11,13.13-1.6,2.44-.28,4.3.79,5.34,3.67,0,3.48-1.86,5-4.5,6-17.32,6.67-34.61,7.26-51.45-1.6C9.75,140,3.45,132.19,2.84,119.4,2.19,105.73,6.63,95.24,16.63,88.87c14.28-9.1,29.38-10.23,44.5-3C73.4,91.77,78.33,104.63,73.47,119.33Z"/><path class="cls-1" d="M85.63,90.25c5-8.41,8.14-9.3,14.34-3.18,8.93,8.82,17.74,17.81,26.55,26.79,2.61,2.67,5,5.66,8.63,6.65,3.14-1.15,3.94-4.07,4.29-7.68,0.71-7.36,1.36-14.77,2.67-22,1.27-7,2.91-7.69,8.79-5.36a441,441,0,0,1,0,60.8c-3.1,6.19-7.16,5.32-11,1.52-6.49-6.45-12.66-13.34-19-20-5.81-6.07-11.28-12.69-17.71-16.79-4.27,2.09-5,5.39-5.43,9.36-0.92,8.05-2.14,16.08-3.63,24-0.91,4.88-2.93,8.53-7.7,4.09-1.89-15-2.43-25.75-.88-45.06C86.13,96.25,85.55,103.43,85.63,90.25Z"/><path class="cls-1" d="M249.72,105l15.66-2.89c0.28,8.1-.47,14.17-0.91,21.13-0.64,10.31,0,13.35-1.38,20-0.82,4-1.93,7.39-5.81,7.15-3.69-.23-5.8-3.73-5.83-7.56C251.37,130.52,248.2,118.48,249.72,105Z"/><path class="cls-2" d="M249.67,97.09c-0.59-10.88,1.5-15.18,7-15.71,5-.48,8.17,3.5,9.43,12.13C261.17,96.52,255.81,97.21,249.67,97.09Z"/><path class="cls-1" d="M200,5.71a3.29,3.29,0,0,1-3.14,1.79q-22.32,0-44.64,0A3.26,3.26,0,0,1,149,5.71,363.07,363.07,0,0,1,200,5.71Z"/><path class="cls-1" d="M131.89,34.35c0.65-.71,1.33-2.08,1.94-2,8.16,0.6,16.5-2.46,24.49,1.61Z"/><path class="cls-1" d="M190.64,33.93c8.85-2.84,17.68-3.49,26.45.42Z"/><path class="cls-1" d="M192.53,150.2a24,24,0,0,1,20.68,0A71.47,71.47,0,0,1,192.53,150.2Z"/><path class="cls-3" d="M7.06,59.2A6.51,6.51,0,0,0,7,60.37a9,9,0,0,1-1.48-.08C5.41,58.8,6.33,59.17,7.06,59.2Z"/><path class="cls-3" d="M342,60.37a6,6,0,0,0-.07-1.17c0.73,0,1.65-.41,1.55,1.09A9,9,0,0,1,342,60.37Z"/><path class="cls-1" d="M331.35,87.74c12.27,5.88,15.2,18.74,10.34,33.44-16.22,0-23.07-.18-35.52.13-2.12.05-3.22-2-3.83-4.36,0.31-3.46,2.13-5,5-5.27,5.32-.5,10.65-0.93,16-1.59,3-.37,6.52,1,8.43-3.37,0.21-3-1.55-4.71-3.35-6.15-7.78-6.25-24.61-5.56-32.29,1.2-10.76,9.47-9.94,25.18,2.07,32.57,8.8,5.41,18.44,6.88,28.32,5.81,4.38-.48,8.75-1.11,13.13-1.6,2.44-.28,2.3.79,3.34,3.67,0,3.48.14,5-2.5,6-17.32,6.67-34.61,7.26-51.45-1.6-9-4.75-15.33-12.55-15.94-25.34-0.65-13.66,3.79-24.16,13.79-30.53,14.28-9.1,29.38-10.23,44.5-3"/></svg>