<svg id="Capa_1" data-name="Capa 1" xmlns="http://www.w3.org/2000/svg" viewBox="0 0 273 287"><defs><style>.cls-1{fill:#777;}.cls-2{fill:#2c9545;}</style></defs><title>metro</title><path class="cls-1" d="M14.82,211.07v31H6.68C4.82,228.17,5.58,204,8,198.55c9.63-2.42,11.62-1.51,15.9,7.26,3.44,7,6.89,14.09,11.06,22.6,4-8.13,7.36-15,10.79-21.9,1.68-3.37,2.89-7.16,7.32-8.72h9.28c0.6,3,1.6,5.8,1.64,8.59,0.18,11.68.08,23.36,0.08,35.64l-8.54.48c-0.92-10.81.07-21.6-1.57-32.68-2.09,4.24-4.18,8.48-6.25,12.73-1.07,2.2-2.07,4.42-3.15,6.62-3.7,7.54-4.44,7.94-14,7.2C23.71,229.46,21.64,219.26,14.82,211.07Z"/><path class="cls-1" d="M140.89,170.27c-34.84,0-60.62-8.65-82-28.26C33.37,118.67,27.76,83.3,44.57,55.57A86.58,86.58,0,0,1,70.15,29C112.71-.21,175.9,4,211.82,38.57,244.49,70,242.66,116,207.73,145.21A107.06,107.06,0,0,1,140.89,170.27ZM138.07,17.14c-27-.16-44.78,4.8-63.15,16.84-44.14,28.93-44.38,82.5-.5,111.71,38.2,25.43,90.95,24.06,126.57-4.8,36.26-29.36,37-77.18-3.87-105.53C178.58,22.51,158,16.64,138.07,17.14Z"/><path class="cls-1" d="M241.08,243.64c-4-.84-8.13-1.15-11.83-2.62-8.48-3.36-13.54-9.83-14.63-19-1-8.55,2.51-15.38,9.08-20.62,8.84-7,24.62-7.2,33.69-.46,7.41,5.51,11.79,14.38,8.82,25.17-2.39,8.69-10.82,15.55-21,16.88a31.72,31.72,0,0,1-4.07,0Zm-15.81-24c0,9.63,6.05,15.54,15.91,15.42,9.16-.11,15.35-6.26,15.39-15.29,0-8.86-6.34-15.36-15.25-15.54C231.69,204,225.3,210.14,225.27,219.6Z"/><path class="cls-1" d="M174.44,242.14h-8c0-12.74-.12-25.23.11-37.7,0-2.19,1.55-4.35,2.55-7,8.37,0,16.23-.34,24.05.1,7,0.4,12,5.34,13.54,12.16,1.34,6-1.57,11.71-7.87,15.48-0.87.52-1.75,1-3.2,1.83l11.93,15.32H196l-11.43-15h-8.52C173.67,231.92,175.77,237,174.44,242.14Zm0.64-23.4c5.89,0,11,.19,16.12-0.06,4.12-.2,6.24-2.43,6.44-5.93s-1.88-6.46-5.66-6.7c-5.55-.35-11.15,0-16.91,0v12.65Z"/><path class="cls-1" d="M78.05,201c5.54-4.17,16.66-5,35.3-3.05l0.43,7.75H87.16v9.37h23.28V224H87.2l-0.58,9.19h27.07l0.76,8.77H78.71c-1.5-6.43-.41-13.45-0.61-20.39C77.9,214.74,78.05,207.94,78.05,201Z"/><path class="cls-1" d="M145.27,242.32h-9.91V206.05H120.19l1.22-6.77c3.31-2.41,25.44-2.73,36.62-1.09a21.9,21.9,0,0,1,.41,3c0,1.3-.17,2.6-0.3,4.39l-11.88.57c-2.07,5.77-.68,11.74-0.93,17.58S145.27,235.6,145.27,242.32Z"/><path class="cls-1" d="M6,277.36a45.86,45.86,0,0,1,.06-19.06,29.42,29.42,0,0,1,16.85.18,8.79,8.79,0,0,1,6.29,7.82c0.46,4-1.57,7-4.78,8.75a20.5,20.5,0,0,1-7.67,2.23A103.59,103.59,0,0,1,6,277.36Zm3.81-15.93v11.75c11.13,1.18,12.24.72,16.14-6.86l-4.61-4.89H9.81Z"/><path class="cls-1" d="M86.52,261.44H71.29c1.69,4.85,4.78,4.25,7.56,4,4.66-.34,8.75.19,10.39,6.13-4.76,9.68-13.43,4.16-20.18,5.87l-0.83-1.63c1-.83,1.87-2.3,2.89-2.39,3.23-.27,6.51.12,9.76-0.06,1.38-.08,2.71-0.94,4.82-1.72-5.28-5-12.91.36-17.45-6.74l0.39-5.24c5.89-4.19,11.77-1.05,17.49-2.93Z"/><path class="cls-1" d="M232.9,259.82c-5.11,3.56-13.54-2.16-17.14,5.69,0.62,7.32,2.12,8.27,12.22,7.59,3.62-5.28-5.34-2.56-3.7-7.36l8.3-.38v9.15c-2.12,4-6.11,3.24-9.33,2.65s-7-1.93-9.33-4.16c-4.25-4-2.41-12.39,3.34-14.13,4.68-1.41,10-.75,15-0.93A7.48,7.48,0,0,1,232.9,259.82Z"/><path class="cls-1" d="M36.28,261.56c4.51,6.46,9.66,2.73,13.77,4.29l0.68,2.83c-2.22.19-4.23,0.39-6.24,0.53s-4.25.26-6.46,0.4c1.12,4.24,1.12,4.24,13.57,4.2L52.06,277H34.43V258.65c5.23-2.84,11.1-.14,16.77-1.76l1.25,3.73Z"/><path class="cls-1" d="M143.66,257.35c0,5.85.1,11.7-.08,17.54,0,1.23-1.08,2.44-1.6,3.52-8.06-4.22-10.26-11.6-15.77-16.45-1.84,5.12.75,10.69-2.6,17-2.71-7.93-1.13-14.18-1.49-19.89,3.71-3.37,6-1.52,7.95,1,3.15,4,6.19,8.17,9.71,12.83C142.39,267.63,138.42,261.53,143.66,257.35Z"/><path class="cls-1" d="M250.25,277.67c-7,.07-12.33-4.19-12.55-10.05C237.48,262,243,257,249.62,256.74c6.85-.23,13.11,4.83,13.14,10.62C262.79,272.69,256.83,277.6,250.25,277.67Zm8.63-11c-2.91-4.81-4.7-6.34-7.7-6.76-4.9-.68-9.56,2.84-9.78,7.39-0.21,4.34,3.51,7.65,8.63,7.52S258.11,272.18,258.88,266.62Z"/><path class="cls-1" d="M93.33,276.39c4.42-6.13,3.68-15.35,12.16-19.93,5.47,6.21,6.59,13.62,10.21,20-4.43,2.34-4.4-2.57-8.51-3.33h-6.71L95,277.76Zm7.8-7.62h7l-4-8.38Z"/><path class="cls-1" d="M205.94,277.75l-5.19-4.58h-8.48l-5,4.53c-0.61-.84-1.25-1.39-1.15-1.62,2.87-6.65,3.61-14.5,10.48-19.7,6.6,5.73,7.55,13.53,10.65,20.25Zm-9.29-17.18-3.9,8.4h7Z"/><path class="cls-1" d="M160,278.94c-4-6.27-1-12-2.89-17.33l-7.69-1c2.66-3.24,2.66-3.24,19.84-3.06a1.8,1.8,0,0,1,.45.64,22.23,22.23,0,0,1,0,2.29l-7.2,1C160.55,266.84,163.13,272.43,160,278.94Z"/><path class="cls-1" d="M177.11,257c2.86,5.41,2.78,15.27-.16,20.19C174,271.83,174.13,261.85,177.11,257Z"/><path class="cls-2" d="M84.39,45.42l24.17,43.19c12.06-12.3,15.58-28.51,26.81-41.28,4.2,7.29,8.14,14.05,12,20.85C151,74.57,154.56,81,159,88.94c11.42-12.89,15.92-28.4,26.52-42l24.11,42.7-24.64,44L161.08,90.83c-12.23,12.21-15.5,28.65-26.93,41.41L110.51,90.78C99,103.41,94.46,118.88,84.28,133.13L60.09,90.06Z"/></svg>