<svg id="Capa_1" data-name="Capa 1" xmlns="http://www.w3.org/2000/svg" viewBox="0 0 435 406.23"><defs><style>.cls-1{fill:#777;}.cls-2{fill:#2c9545;}</style></defs><title>muni</title><path class="cls-1" d="M429.82,324.47a6.88,6.88,0,0,0-.6,1.34,28.72,28.72,0,0,1-23.81,22.09c-9.54,1.46-18.1-.72-25.36-7.12a28.49,28.49,0,0,1-3.8-38.1,28.59,28.59,0,0,1,20.15-11.53,29.75,29.75,0,0,1,22.85,6.32,27.37,27.37,0,0,1,10,16.25,8,8,0,0,0,.57,1.37v9.37ZM400.3,302c-8.95-.3-17.39,7.4-17.5,17.5-0.09,8.44,5.82,17.8,17.36,17.86,10,0.05,17.29-7.25,17.59-17.74C418,310,409.87,302,400.3,302Z"/><path class="cls-1" d="M7,335.93l9-6.16a18.77,18.77,0,0,0,1.16,1.73c4.15,5,9.61,6.18,15.71,5.37a7.86,7.86,0,0,0,3.08-1.29c2.76-1.79,3.19-5.1.79-7.3a16.08,16.08,0,0,0-4.62-2.8c-2.87-1.21-5.86-2.11-8.77-3.21a22.17,22.17,0,0,1-9-5.57c-5.45-6-5.44-18.26,4.38-23.34a22.94,22.94,0,0,1,13.85-2.25,21.51,21.51,0,0,1,13.93,7.29c0.34,0.39.62,0.83,1.11,1.5l-8.1,6.2c-3-3.62-6.91-4.53-11.25-4.16a8.36,8.36,0,0,0-3.2.91,4.16,4.16,0,0,0-.33,7.27,22.25,22.25,0,0,0,4.22,2c3.22,1.25,6.56,2.26,9.7,3.69a36.52,36.52,0,0,1,6.66,4,12.27,12.27,0,0,1,4.88,9.11,20.57,20.57,0,0,1-.37,6.94,14.36,14.36,0,0,1-9,10.35A28.64,28.64,0,0,1,27.6,348a33.42,33.42,0,0,1-8.14-1.53A22,22,0,0,1,8,337.58a10.69,10.69,0,0,0-1-1.13v-0.52Z"/><path class="cls-2" d="M220.48,14.64l2,1.13a7.9,7.9,0,0,1,3.58,9,7.48,7.48,0,0,1-7.7,5.78,7.37,7.37,0,0,1-7.47-5.74c-0.88-3.5,0-7,3.74-9.11,0.58-.32,1.14-0.69,1.71-1h4.17Z"/><path class="cls-1" d="M266.83,406.23V381h2.29l0.43,1.73c5.17-3.3,10.19-2.91,13.28,1a10.29,10.29,0,0,1-.62,13.3,9.27,9.27,0,0,1-12.7-.08,23.68,23.68,0,0,0-.17,4.66c0,1.55.06,3.1,0.1,4.66h-2.6ZM282.49,390c-0.33-4.21-2.72-7.06-6.64-7.25-3.7-.17-6.94,3.28-7,7.21s3.22,7.44,6.94,7.26C280.12,397,282.23,393.79,282.49,390Z"/><path class="cls-2" d="M159.21,84.69H277.37a19.47,19.47,0,0,1,.21,2c0,30.37.19,60.73-.07,91.1a59.56,59.56,0,0,1-48.23,57.32A56.07,56.07,0,0,1,196,231.66c-19.48-8.45-31.17-23.37-35.58-44A56.78,56.78,0,0,1,159.26,176c-0.09-29.5,0-59,0-88.5C159.21,86.69,159.21,85.83,159.21,84.69Zm34.88,122c0.75,0.05,1.5.15,2.26,0.15,3.12,0,6.25-.09,9.36,0,3.42,0.14,5.59-1.46,6.88-4.47,0.71-1.67,1.27-3.41,2-5.05,0.92-2,2.28-3.47,4.64-3.69a2.33,2.33,0,0,0,.73-0.45c-1-6.07,1-10.77,6.56-14.13,0.35,3,.77,5.76,2.26,8.17a15.34,15.34,0,0,0,6.08,5.52c2.55,1.35,5.34,1.14,8.17,1.24a4.37,4.37,0,0,1-2.55,4.1,57.77,57.77,0,0,1-5.46,2.36c-1.2.49-2.48,0.79-3.65,1.34a5.14,5.14,0,0,0-3.06,4.84c0.87,0.08,1.62.21,2.38,0.22,3.12,0,6.24.06,9.36,0a5.1,5.1,0,0,0,5.44-4.23,14.6,14.6,0,0,0,.5-3.32c0.05-2.25-.09-4.51-0.05-6.76a5.73,5.73,0,0,0-1.21-3.6,23.74,23.74,0,0,1-4.52-15.9c0.15-2.32.47-4.63,0.74-7.19-5.66-3.71-8.83-9.33-10.61-15.56-2.74,1.23-5.22,2.47-7.79,3.44a18.66,18.66,0,0,1-7.94,1c-2.69-.18-5.37-0.56-8.49-0.9,1.22,2,2.16,3.72,3.32,5.31,2.5,3.44,6,5.6,10.17,7.43-3.88,2.4-7.25,4.91-9.66,8.49a25.74,25.74,0,0,0-4.2,12c3.39,1.26,4.46,2.47,4.72,5.28,0,0.43,0,.87,0,1.3,0.26,2.74-.94,4.18-3.71,4.68-1.7.3-3.43,0.43-5.15,0.56C197,199.29,194.42,201.83,194.09,206.68Zm-9-76.71c1.66,2.06,2.93,3.67,4.25,5.25a97.63,97.63,0,0,0,10.44,11.22,22.71,22.71,0,1,0,25.63-37.06,4.16,4.16,0,0,0-4.76.13c-3.9,2.57-7.21,6-11.4,8.11a1.43,1.43,0,0,0-.29.53c0.76,1.73,1.29,3.66,2.9,4.87a18.8,18.8,0,0,1,3.1-1,2.32,2.32,0,0,1,2.48,3.38,5.61,5.61,0,0,1-1.46,1.75,12.88,12.88,0,0,1-1.8,1.14l0.8,2.07-8.8,5.16C200.16,130.53,193.35,128.81,185.13,130Zm54.23,31.36,2.32,1.74a24.11,24.11,0,0,0,5.92-14.83,25.3,25.3,0,0,0-3.15-13.48,6.26,6.26,0,0,1-1-2.35,13.12,13.12,0,0,1,3.63-10,5.12,5.12,0,0,1,8.65,2.4,12.25,12.25,0,0,1,.49,3.58c0,2.68-.28,5.35-0.41,8a3.11,3.11,0,0,1-1.51,2.53,8.54,8.54,0,0,0-2.56,2.81c-1.56,3-.56,8.15,2,11a6.37,6.37,0,0,0,.76-1A48.6,48.6,0,0,0,259,125.46a8,8,0,0,0-6.33-7.41c-3.76-1-6.42.65-8.58,3.41a19.92,19.92,0,0,0-3.89,10.31,5.13,5.13,0,0,0,.91,3.16c4.72,8.49,4.64,16.82-.93,24.94A16.25,16.25,0,0,0,239.36,161.33ZM195,119.27a10.48,10.48,0,0,0,.91-0.54q12.55-9.68,25.11-19.35a4.86,4.86,0,0,0,1.89-4c-2-1.1-3.55-.51-5.11.71Q206,105.35,194,114.52a16.59,16.59,0,0,1-1.52.94Zm-11.87,42.41c3.55-.94,7-1.9,10.48-2.75s7.13-1.66,10.69-2.48c-0.69-2.8-1.52-5.16-4.21-6.37a8.55,8.55,0,0,1-2.41-1.95,2.45,2.45,0,0,0-2.58-.75c-2.66.71-5.05,1.88-6.48,4.38C186.85,155,185.11,158.2,183.18,161.68Zm-3.57-2.27a9.8,9.8,0,0,0,4.81-5.43,5.94,5.94,0,0,0-5.74-7.51C177.56,149.71,178.09,157.09,179.62,159.41Zm10.06-43.35c-1.86,2-3.41,3.64-4.88,5.34a15,15,0,0,0-1.54,2.4,2.13,2.13,0,0,0-.08,2.45,2,2,0,0,0,2.56.71,30.85,30.85,0,0,0,4.7-2.13c2.32-1.44,2.77-3.39,1.49-5.81A25.6,25.6,0,0,0,189.68,116.06Zm15.88,8.64c0,3.34,2.75,5.2,5,3.62A40.37,40.37,0,0,1,216,125a1,1,0,0,0,.1-0.48,1.18,1.18,0,0,0-1.72-.61,11.85,11.85,0,0,0-2.93,1.53,3,3,0,0,1-3.79.25A22.92,22.92,0,0,0,205.56,124.69Z"/><path class="cls-1" d="M271.86,57.45l-7.31,15.61c-30.7-13.75-61.37-13.67-92.29,0L165,57.59C192.58,43.18,235.55,39.66,271.86,57.45Z"/><path class="cls-1" d="M168.83,347.16h-9.78l-27.24-35.07c-0.6,3.37-.27,6.17-0.33,9-0.06,2.95,0,5.9,0,8.85v17.25h-11.7V291.91h11L157.07,326c0.63-3.3.29-6,.35-8.73,0.06-2.86,0-5.73,0-8.59V291.93h11.4v55.23Z"/><path class="cls-1" d="M350.78,325.14H336.3c-0.2-3.56,0-6.89-.1-10.19,2.09-.5,20.85-0.67,25.69-0.25a10.63,10.63,0,0,1,.26,1.66c0,6.33,0,12.66,0,19a4.16,4.16,0,0,1-1.18,3,28.85,28.85,0,0,1-19,9.54,30.23,30.23,0,0,1-20.74-5A26.73,26.73,0,0,1,309,322a27.42,27.42,0,0,1,4.58-18.23c5.11-7.41,12.27-11.45,21.2-12.58a30.13,30.13,0,0,1,18.09,3.2,24.57,24.57,0,0,1,7.22,5.51l-8,7.06c-0.46-.31-0.82-0.52-1.15-0.77A18.85,18.85,0,0,0,332.55,303c-9.3,3.06-12.55,12.8-11.35,19.61,2.23,12.72,16.5,18.2,27.34,11.84,1.55-.91,2.48-2,2.27-3.94A51.94,51.94,0,0,1,350.78,325.14Z"/><path class="cls-1" d="M306.67,347.2H293.73l-3.78-9.2H266.72L263,347.13H250l22.83-55.26h11Zm-20.26-19.12-7.77-19.5-0.56,0-7.85,19.52h16.18Z"/><path class="cls-1" d="M111,347.2H98.07l-3.7-8.93c-2-.46-18.13-0.61-23.35-0.21l-3.81,9.21H54.28L77.14,291.9h11ZM90.75,328.07l-8.08-20.18-8.12,20.18H90.75Z"/><path class="cls-1" d="M219.66,303H204.89c-0.15,3.13-.06,6.06-0.08,9s0,5.9,0,8.85v17.44c0,2.93,0,5.86,0,8.91H192.94c-0.2-7.36-.06-14.69-0.09-22s0-14.54,0-21.89c-2.65-.52-5.07-0.22-7.46-0.27s-4.84,0-7.52,0c-0.25-3.75-.06-7.33-0.13-11h41.92V303Z"/><path class="cls-1" d="M228.91,291.9H240.4c0.42,2,.58,50.88.17,55.22H228.91V291.9Z"/><path class="cls-1" d="M182.3,374.26v24.55l-2.78.19c0-3.31,0-6.4,0-9.5a46.58,46.58,0,0,0-.53-9.07l-8.8,14.36c-1.6-2.58-3-5-4.58-7.37s-2.71-4.94-5-6.91v18.29h-2.46V374.33c2.33-.45,2.34-0.46,3.37,1.24,2.28,3.78,4.54,7.57,6.82,11.36,0.53,0.88,1.09,1.74,1.82,2.9,1-1.63,1.88-3,2.72-4.35,2-3.26,4-6.49,5.89-9.8C179.58,374.26,180.49,373.59,182.3,374.26Z"/><path class="cls-2" d="M189.57,33.33a7.93,7.93,0,0,1-8-7.88,8.16,8.16,0,0,1,7.94-8,8,8,0,0,1,7.91,8A7.78,7.78,0,0,1,189.57,33.33Z"/><path class="cls-2" d="M161.75,41.66a7.53,7.53,0,0,1-7.81-7.84,7.91,7.91,0,0,1,15.81.09A7.74,7.74,0,0,1,161.75,41.66Z"/><path class="cls-2" d="M247.28,33.33a8,8,0,0,1-7.93-7.93c0.06-4.28,3.8-8.17,8-7.92,5.15,0.31,7.79,3.79,7.89,8A7.85,7.85,0,0,1,247.28,33.33Z"/><path class="cls-2" d="M275.1,41.66a7.74,7.74,0,0,1-8-7.75A7.93,7.93,0,0,1,283,33.82,7.7,7.7,0,0,1,275.1,41.66Z"/><path class="cls-1" d="M345.42,383.1v-9h2.24a3.35,3.35,0,0,1,.22.79q0,9.62,0,19.24c0,1.47-.22,3,1.87,3.43a3.36,3.36,0,0,1,.35,1.36c-2.85.82-3.29,0.64-5-2.11-2.07,2.42-4.79,2.91-7.76,2.58a8.2,8.2,0,0,1-5.37-2.84,10.14,10.14,0,0,1,0-13.09C335.42,379.57,339.89,379.38,345.42,383.1Zm-13.17,6.78c0,0.52,0,1,.08,1.56a6.52,6.52,0,0,0,9.12,5.2,7.46,7.46,0,0,0,2.12-11.84,6.46,6.46,0,0,0-9.32-.09A6.61,6.61,0,0,0,332.25,389.88Z"/><path class="cls-1" d="M391.45,382.89v-8.73h2.32c0.05,0.77.15,1.52,0.15,2.27q0,8.06,0,16.13c0,0.52,0,1,0,1.56,0,1.75.25,3.34,2.37,3.53V399c-1.29,1.11-3.59.15-4.8-1.93-5.14,3.43-10,3.23-13.28-.56a10.13,10.13,0,0,1,0-13.13C381.3,379.77,386.16,379.48,391.45,382.89Zm0.41,7.11c0-4-3.15-7.35-6.92-7.23s-6.52,3.11-6.6,7.24c-0.08,4,3.1,7.33,6.61,7.28A7.17,7.17,0,0,0,391.85,390Z"/><path class="cls-1" d="M304,382.86l0.53-1.82,1.95-.16a2.62,2.62,0,0,1,.32.78q0,6.51,0,13c0,1.27,0,2.4,1.62,2.83,0.89,0.24.65,1,.33,1.7-2.22.69-3.73-.05-4.54-2.45a8.56,8.56,0,0,1-7.64,2.71,8.72,8.72,0,0,1-5.48-2.66c-3.4-3.39-3-10.29-.36-13.18C294.26,379.75,298.92,379.34,304,382.86Zm0.5,7.17a7,7,0,0,0-5.83-7.23,6.63,6.63,0,0,0-7.23,5,9.9,9.9,0,0,0-.15,3.86,6.6,6.6,0,0,0,8.84,5.13A7.16,7.16,0,0,0,304.49,390Z"/><path class="cls-1" d="M368.14,382.77l0.54-1.75h2a2.85,2.85,0,0,1,.24.76c0,4.25,0,8.5,0,12.75,0,2.22.15,2.36,2.31,3.16a1.15,1.15,0,0,1-1.09,1.74c-2,.3-3-0.84-3.76-2.43-4.68,3.37-9.83,3.3-13-.08a10.47,10.47,0,0,1-.55-13.17C358,379.85,362.87,379.46,368.14,382.77Zm-12.89,7.35c0,4,3.09,7.24,6.69,7.18a7.29,7.29,0,0,0,6.84-7.39,7.15,7.15,0,0,0-7-7.15C358.07,382.85,355.21,386.09,355.25,390.11Z"/><path class="cls-1" d="M136.32,390.52H122.06c-0.06,2.84,1,4.81,3.27,5.92,3.16,1.53,6,.87,8.68-1.64l1.68,1.47a11,11,0,0,1-1.45,1.5,9.89,9.89,0,0,1-10.13.77c-3.26-1.43-4.67-4.3-4.65-7.78a14.78,14.78,0,0,1,.68-4.84,8.56,8.56,0,0,1,10.34-5.22C134.77,381.87,137,385.54,136.32,390.52ZM134,388.16c-1-3.78-3.36-5.68-6.18-5.39a5.74,5.74,0,0,0-5.4,5.39C126.19,388.19,130,388.19,134,388.16Z"/><path class="cls-1" d="M200.75,381h2.15a2.43,2.43,0,0,1,.27.73q0,6,0,12c0,1.57-.18,3.17,1.82,3.86,0.27,0.09.27,1,.4,1.57-2.17.65-3.6,0-4.52-1.69a30.22,30.22,0,0,1-3.59,1.62c-4.35,1.32-7.85-.77-8.61-5.22a37.05,37.05,0,0,1-.31-5.42c0-2.33,0-4.67,0-7.31l2.77-.16c0,1.46,0,2.65,0,3.84,0,2.6-.05,5.2,0,7.79a4.24,4.24,0,0,0,3.39,4.33,4.73,4.73,0,0,0,5.43-2.56,9.76,9.76,0,0,0,.71-3.51C200.81,387.61,200.75,384.41,200.75,381Z"/><path class="cls-1" d="M212,398.89H210c-0.56-1.83-.74-12.73-0.3-17.59A1,1,0,0,1,210,381c0.59,0,1.18,0,1.82,0l0.44,2.5a6.57,6.57,0,0,1,6.38-2.7,5.75,5.75,0,0,1,5.37,4.5,16.7,16.7,0,0,1,.42,3.33c0.07,2,0,4,0,6,0,1-.24,2.12,1.25,2.5a1.85,1.85,0,0,1,.33,1.51,1.48,1.48,0,0,1-1.23.57c-1.67-.12-2.41-0.8-2.8-2.54a14.53,14.53,0,0,1-.32-2.82c0-2.08,0-4.17,0-6.25a4.16,4.16,0,0,0-4.4-4.42c-2.9-.07-5,1.6-5.21,4.3-0.12,1.55,0,3.12,0,4.68C212,394.29,212,396.45,212,398.89Z"/><path class="cls-1" d="M73.59,381c0,3.94,0,7.57,0,11.21,0,0.61,0,1.21,0,1.82,0,2.42.11,2.52,2.63,3.85a3,3,0,0,1-.86,1.32,3.15,3.15,0,0,1-4-1.82,29,29,0,0,1-3.85,1.7c-3.58,1-8.39-.53-8.43-6.06,0-4,0-7.93,0-12h2.24a2.91,2.91,0,0,1,.22.74c0,2.95,0,5.89,0,8.84,0,0.52,0,1,0,1.56,0.13,3,1.72,4.71,4.37,4.8a4.88,4.88,0,0,0,5.17-4.72c0.14-2.33,0-4.68.05-7,0-1.37,0-2.74,0-4.21h2.44Z"/><path class="cls-2" d="M231.76,41.6a5.7,5.7,0,1,1-.16-11.4A5.7,5.7,0,1,1,231.76,41.6Z"/><path class="cls-2" d="M205.09,41.6a5.7,5.7,0,0,1-5.73-5.76,5.62,5.62,0,0,1,5.83-5.64A5.69,5.69,0,0,1,210.91,36,5.62,5.62,0,0,1,205.09,41.6Z"/><path class="cls-2" d="M179.15,46.81A5.8,5.8,0,0,1,173.33,41,5.77,5.77,0,1,1,179.15,46.81Z"/><path class="cls-2" d="M257.6,35.43A5.54,5.54,0,0,1,263.48,41a5.78,5.78,0,0,1-11.55.23A5.57,5.57,0,0,1,257.6,35.43Z"/><path class="cls-1" d="M90.32,383.43l-1.56,1c-0.56-.39-1.09-0.79-1.66-1.14a3.26,3.26,0,0,0-3-.27c-1.87.71-2.32,2.57-.81,3.87a12,12,0,0,0,2.48,1.36c1.31,0.66,2.67,1.23,3.93,2,1.77,1,2.26,2.74,2.08,4.69a4.54,4.54,0,0,1-3,3.92c-4.08,1.79-8.3.45-10.35-3.41l2-1c1.41,2.71,3.76,2.93,6.29,2.58a2.76,2.76,0,0,0,2.42-2.07A2.45,2.45,0,0,0,88,392c-0.88-.54-1.84-0.94-2.77-1.39-1.08-.53-2.21-1-3.24-1.6a4.58,4.58,0,0,1,1.34-8.26C86.24,379.83,88.46,380.61,90.32,383.43Z"/><path class="cls-1" d="M254.18,383.12l-1.44,1.58c-4.6-2.76-8.12-2.51-10.81.69a7.47,7.47,0,0,0,0,9.35c2.48,3,6.19,3.2,10.74.57l1.43,1.59c-4.41,3.7-10.37,3.49-13.93-.37a9.85,9.85,0,0,1,0-13C243.6,379.75,250.35,379.22,254.18,383.12Z"/><path class="cls-1" d="M97,383.56l-2.27-.5v-1.88l2.27-.61v-6.38l2.41-.17v6.66l4.1,0.34,0.21,2.09-4.13.32c0,1-.12,1.93-0.12,2.86,0,2.34,0,4.68,0,7,0,3.43.64,4,4.14,4v1.9a13,13,0,0,1-1.77.26c-3.27,0-4.73-1.35-4.82-4.71-0.08-2.86,0-5.72,0-8.59C97,385.33,97,384.49,97,383.56Z"/><path class="cls-1" d="M40.59,374.07h2.22c0.58,0.55.73,20.16,0.23,24.72H40.59V374.07Z"/><path class="cls-1" d="M110.43,398.82l-2.76.15c0-6,0-11.86,0-17.89l2.48-.19,0.55,2.25c1.82-1.81,3.77-2.88,6.39-2.15v2a5,5,0,0,1-.73.25,14.37,14.37,0,0,0-3,.52,4.56,4.56,0,0,0-2.88,4.52c0,2.6,0,5.19,0,7.79C110.43,397,110.43,397.81,110.43,398.82Z"/><path class="cls-1" d="M313.27,374.14h2.09a3.2,3.2,0,0,1,.22.78q0,8.72,0,17.44c0,0.61,0,1.22,0,1.82,0.08,2.34.3,2.6,2.58,3.15l0.8,0.16a2.78,2.78,0,0,1,.23.71,8.63,8.63,0,0,1-.13,1.22,24.5,24.5,0,0,1-2.87,0,3.18,3.18,0,0,1-3-2.82,8.31,8.31,0,0,1-.12-1.55q0-9.76,0-19.52C313.14,375.1,313.22,374.68,313.27,374.14Z"/><path class="cls-1" d="M49.8,374.11H52a3.21,3.21,0,0,1,.25.8q0,8.69,0,17.37c0,0.6,0,1.21,0,1.81,0.08,2.25.34,2.57,2.56,3.21l0.85,0.23v1.92c-0.87,0-1.63,0-2.38,0a3.21,3.21,0,0,1-3.17-2.56,7.76,7.76,0,0,1-.37-2C49.79,388,49.8,381.22,49.8,374.11Z"/><path class="cls-1" d="M258.17,381h2.12a2.33,2.33,0,0,1,.29.73c0,3.73,0,7.46,0,11.18,0,0.69,0,1.39,0,2.08,0.16,1.54.43,1.78,2.34,2.25V399c-0.93,1-3.61.42-4.28-.91a4.08,4.08,0,0,1-.51-1.73C258.16,391.33,258.17,386.31,258.17,381Z"/><path class="cls-1" d="M327.07,397.25V399c-1.08,1-3.7.43-4.34-.9a4.25,4.25,0,0,1-.48-1.74c0-5,0-10,0-15.21l2.1-.19a3.09,3.09,0,0,1,.31.84c0,3.73,0,7.46,0,11.19,0,0.61,0,1.22,0,1.82C324.82,396.57,325,396.76,327.07,397.25Z"/><path class="cls-1" d="M232.93,381.08c0,1.61,0,3.15,0,4.69,0,3,0,6.06,0,9.09,0,1.43.45,2.34,2.08,2.41V399c-1.19.72-3.43,0.47-4-.77a5.26,5.26,0,0,1-.56-2c0-5,0-10,0-15.23h2.49Z"/><path class="cls-1" d="M231.56,377.81a1.85,1.85,0,0,1-1.6-2,1.72,1.72,0,0,1,3.4.48A1.85,1.85,0,0,1,231.56,377.81Z"/><path class="cls-1" d="M323.34,374.45a1.53,1.53,0,0,1,1.79,1.44,1.74,1.74,0,0,1-1.69,1.9,2,2,0,0,1-1.71-1.67A1.66,1.66,0,0,1,323.34,374.45Z"/><path class="cls-1" d="M261.08,376.16a1.48,1.48,0,0,1-1.7,1.49,1.69,1.69,0,0,1-1.7-1.56,1.76,1.76,0,0,1,1.91-1.63A1.48,1.48,0,0,1,261.08,376.16Z"/></svg>